G04 #@! TF.FileFunction,Copper,L2,Bot,Signal*
%FSLAX46Y46*%
G04 Gerber Fmt 4.6, Leading zero omitted, Abs format (unit mm)*
G04 Created by KiCad (PCBNEW 4.0.1-3.201512221401+6198~38~ubuntu15.10.1-stable) date mar 05 ene 2016 12:58:44 CET*
%MOMM*%
G01*
G04 APERTURE LIST*
%ADD10C,0.100000*%
%ADD11R,1.600000X1.600000*%
%ADD12C,1.600000*%
%ADD13R,1.300000X1.300000*%
%ADD14C,1.300000*%
%ADD15C,1.900000*%
%ADD16R,3.500120X3.500120*%
%ADD17R,2.540000X2.540000*%
%ADD18C,2.540000*%
%ADD19R,2.032000X1.727200*%
%ADD20O,2.032000X1.727200*%
%ADD21C,1.501140*%
%ADD22C,1.998980*%
%ADD23C,0.600000*%
%ADD24C,0.508000*%
%ADD25C,1.016000*%
%ADD26C,0.762000*%
%ADD27C,0.254000*%
G04 APERTURE END LIST*
D10*
D11*
X93980000Y-74930000D03*
D12*
X93980000Y-77470000D03*
X91440000Y-74930000D03*
X91440000Y-77470000D03*
X88900000Y-74930000D03*
X88900000Y-77470000D03*
D13*
X77978000Y-102870000D03*
D14*
X72978000Y-102870000D03*
D15*
X72898000Y-82296000D03*
X75438000Y-82296000D03*
X77978000Y-82296000D03*
D16*
X78336140Y-90932000D03*
X72336660Y-90932000D03*
X75336400Y-95631000D03*
D13*
X83566000Y-91440000D03*
D14*
X86066000Y-91440000D03*
D13*
X83566000Y-86360000D03*
D14*
X86066000Y-86360000D03*
D13*
X83566000Y-80264000D03*
D14*
X83566000Y-82764000D03*
D15*
X93980000Y-85090000D03*
X93980000Y-87630000D03*
X93980000Y-90170000D03*
X93980000Y-92710000D03*
X93980000Y-95250000D03*
X93980000Y-97790000D03*
X93980000Y-100330000D03*
X101600000Y-100330000D03*
X101600000Y-97790000D03*
X101600000Y-95250000D03*
X101600000Y-92710000D03*
X101600000Y-90170000D03*
X101600000Y-87630000D03*
X101600000Y-85090000D03*
D17*
X90424000Y-106426000D03*
D18*
X95504000Y-106426000D03*
X100584000Y-106426000D03*
D19*
X106680000Y-92202000D03*
D20*
X106680000Y-94742000D03*
X106680000Y-97282000D03*
X106680000Y-99822000D03*
X106680000Y-102362000D03*
X106680000Y-104902000D03*
D21*
X89916000Y-86459060D03*
X89916000Y-91340940D03*
D22*
X108712000Y-81788000D03*
X98552000Y-81788000D03*
D15*
X81534000Y-97790000D03*
X91694000Y-97790000D03*
X86360000Y-101600000D03*
X83820000Y-101600000D03*
X103378000Y-73152000D03*
X103378000Y-78232000D03*
X108458000Y-73152000D03*
X108458000Y-78232000D03*
D23*
X80264000Y-108204000D03*
X97790000Y-73914000D03*
X97282000Y-78486000D03*
X85598000Y-95504000D03*
X86106000Y-105156000D03*
X71628000Y-78486000D03*
X95504000Y-82804000D03*
X96266000Y-82042000D03*
D24*
X86066000Y-91440000D02*
X89816940Y-91440000D01*
X89816940Y-91440000D02*
X89916000Y-91340940D01*
X89916000Y-91340940D02*
X91285060Y-91340940D01*
X92456000Y-90170000D02*
X93980000Y-90170000D01*
X91285060Y-91340940D02*
X92456000Y-90170000D01*
X89916000Y-86459060D02*
X86165060Y-86459060D01*
X86165060Y-86459060D02*
X86066000Y-86360000D01*
X93980000Y-87630000D02*
X92202000Y-87630000D01*
X90932000Y-86360000D02*
X90015060Y-86360000D01*
X92202000Y-87630000D02*
X90932000Y-86360000D01*
X90015060Y-86360000D02*
X89916000Y-86459060D01*
D25*
X88900000Y-74930000D02*
X80264000Y-74930000D01*
X77978000Y-77216000D02*
X77978000Y-82296000D01*
X80264000Y-74930000D02*
X77978000Y-77216000D01*
X100584000Y-108458000D02*
X103124000Y-108458000D01*
X103124000Y-108458000D02*
X105156000Y-106426000D01*
X81534000Y-97790000D02*
X81534000Y-105664000D01*
X100584000Y-108458000D02*
X100584000Y-107696000D01*
X99060000Y-109982000D02*
X100584000Y-108458000D01*
X85852000Y-109982000D02*
X99060000Y-109982000D01*
X81534000Y-105664000D02*
X85852000Y-109982000D01*
X100584000Y-107696000D02*
X100584000Y-106426000D01*
X77978000Y-82296000D02*
X77978000Y-85852000D01*
X82042000Y-89916000D02*
X82042000Y-97282000D01*
X77978000Y-85852000D02*
X82042000Y-89916000D01*
X82042000Y-97282000D02*
X81534000Y-97790000D01*
X83566000Y-82764000D02*
X86574000Y-82764000D01*
X88646000Y-84836000D02*
X93726000Y-84836000D01*
X86574000Y-82764000D02*
X88646000Y-84836000D01*
X93726000Y-84836000D02*
X93980000Y-85090000D01*
X77978000Y-82296000D02*
X81026000Y-82296000D01*
X81494000Y-82764000D02*
X83566000Y-82764000D01*
X81026000Y-82296000D02*
X81494000Y-82764000D01*
X100584000Y-107696000D02*
X100584000Y-106426000D01*
X100584000Y-106426000D02*
X105156000Y-106426000D01*
X105156000Y-106426000D02*
X106680000Y-104902000D01*
X106680000Y-102362000D02*
X106680000Y-104902000D01*
D24*
X101600000Y-95250000D02*
X103505000Y-95250000D01*
X104013000Y-94742000D02*
X106680000Y-94742000D01*
X103505000Y-95250000D02*
X104013000Y-94742000D01*
D26*
X93980000Y-77470000D02*
X98298000Y-77470000D01*
X99060000Y-78232000D02*
X103378000Y-78232000D01*
X98298000Y-77470000D02*
X99060000Y-78232000D01*
X93980000Y-92710000D02*
X97536000Y-92710000D01*
X99314000Y-84328000D02*
X103378000Y-80264000D01*
X99314000Y-90932000D02*
X99314000Y-84328000D01*
X97536000Y-92710000D02*
X99314000Y-90932000D01*
X103378000Y-77978000D02*
X103378000Y-80264000D01*
X104902000Y-81788000D02*
X108712000Y-81788000D01*
X103378000Y-80264000D02*
X104902000Y-81788000D01*
X103378000Y-72898000D02*
X103378000Y-77978000D01*
D25*
X72978000Y-102870000D02*
X74422000Y-102870000D01*
X80772000Y-92202000D02*
X80010000Y-91440000D01*
X80772000Y-95250000D02*
X80772000Y-92202000D01*
X78486000Y-97536000D02*
X80772000Y-95250000D01*
X78486000Y-98806000D02*
X78486000Y-97536000D01*
X74422000Y-102870000D02*
X78486000Y-98806000D01*
X80010000Y-91440000D02*
X78336140Y-90932000D01*
X72898000Y-82296000D02*
X72898000Y-85090000D01*
X76200000Y-90932000D02*
X78336140Y-90932000D01*
X75438000Y-90170000D02*
X76200000Y-90932000D01*
X75438000Y-87630000D02*
X75438000Y-90170000D01*
X72898000Y-85090000D02*
X75438000Y-87630000D01*
X77320140Y-90805000D02*
X79375000Y-90805000D01*
X79375000Y-90805000D02*
X80010000Y-91440000D01*
D24*
X88900000Y-77470000D02*
X88900000Y-80010000D01*
X90932000Y-82042000D02*
X88900000Y-80010000D01*
X94742000Y-82042000D02*
X90932000Y-82042000D01*
X95504000Y-82804000D02*
X94742000Y-82042000D01*
X91440000Y-77470000D02*
X91440000Y-80264000D01*
X96266000Y-82042000D02*
X95504000Y-81280000D01*
X95504000Y-81280000D02*
X92456000Y-81280000D01*
X92456000Y-81280000D02*
X91440000Y-80264000D01*
X95504000Y-106426000D02*
X95504000Y-102108000D01*
X95504000Y-95250000D02*
X93980000Y-95250000D01*
X96266000Y-96012000D02*
X95504000Y-95250000D01*
X96266000Y-101346000D02*
X96266000Y-96012000D01*
X95504000Y-102108000D02*
X96266000Y-101346000D01*
X86360000Y-101600000D02*
X89662000Y-101600000D01*
X91694000Y-99568000D02*
X91694000Y-97790000D01*
X89662000Y-101600000D02*
X91694000Y-99568000D01*
X91694000Y-97790000D02*
X93980000Y-97790000D01*
D27*
G36*
X104183579Y-82506420D02*
X104342577Y-82612659D01*
X104513194Y-82726662D01*
X104902000Y-82804000D01*
X107416724Y-82804000D01*
X107784927Y-83172846D01*
X108385453Y-83422206D01*
X109035694Y-83422774D01*
X109636655Y-83174462D01*
X110011000Y-82800769D01*
X110011000Y-107387273D01*
X109612240Y-106987817D01*
X108864562Y-106677354D01*
X108054989Y-106676648D01*
X107306771Y-106985805D01*
X106733817Y-107557760D01*
X106423354Y-108305438D01*
X106422648Y-109115011D01*
X106731805Y-109863229D01*
X107303760Y-110436183D01*
X107377976Y-110467000D01*
X100191446Y-110467000D01*
X101057446Y-109601000D01*
X103124000Y-109601000D01*
X103561407Y-109513994D01*
X103932223Y-109266223D01*
X106797846Y-106400600D01*
X106864745Y-106400600D01*
X107438234Y-106286526D01*
X107924415Y-105961670D01*
X108249271Y-105475489D01*
X108363345Y-104902000D01*
X108249271Y-104328511D01*
X107924415Y-103842330D01*
X107823000Y-103774567D01*
X107823000Y-103489433D01*
X107924415Y-103421670D01*
X108249271Y-102935489D01*
X108363345Y-102362000D01*
X108249271Y-101788511D01*
X107924415Y-101302330D01*
X107614931Y-101095539D01*
X108030732Y-100724036D01*
X108284709Y-100196791D01*
X108287358Y-100181026D01*
X108166217Y-99949000D01*
X106807000Y-99949000D01*
X106807000Y-99969000D01*
X106553000Y-99969000D01*
X106553000Y-99949000D01*
X105193783Y-99949000D01*
X105072642Y-100181026D01*
X105075291Y-100196791D01*
X105329268Y-100724036D01*
X105745069Y-101095539D01*
X105435585Y-101302330D01*
X105110729Y-101788511D01*
X104996655Y-102362000D01*
X105110729Y-102935489D01*
X105435585Y-103421670D01*
X105537000Y-103489433D01*
X105537000Y-103774567D01*
X105435585Y-103842330D01*
X105110729Y-104328511D01*
X104996655Y-104902000D01*
X105007754Y-104957800D01*
X104682554Y-105283000D01*
X102134722Y-105283000D01*
X101664505Y-104811961D01*
X100964590Y-104521332D01*
X100206735Y-104520670D01*
X99506314Y-104810078D01*
X98969961Y-105345495D01*
X98679332Y-106045410D01*
X98678670Y-106803265D01*
X98968078Y-107503686D01*
X99441000Y-107977435D01*
X99441000Y-107984554D01*
X98586554Y-108839000D01*
X86325446Y-108839000D01*
X84198196Y-106711750D01*
X88519000Y-106711750D01*
X88519000Y-107822310D01*
X88615673Y-108055699D01*
X88794302Y-108234327D01*
X89027691Y-108331000D01*
X90138250Y-108331000D01*
X90297000Y-108172250D01*
X90297000Y-106553000D01*
X90551000Y-106553000D01*
X90551000Y-108172250D01*
X90709750Y-108331000D01*
X91820309Y-108331000D01*
X92053698Y-108234327D01*
X92232327Y-108055699D01*
X92329000Y-107822310D01*
X92329000Y-106711750D01*
X92170250Y-106553000D01*
X90551000Y-106553000D01*
X90297000Y-106553000D01*
X88677750Y-106553000D01*
X88519000Y-106711750D01*
X84198196Y-106711750D01*
X82827613Y-105341167D01*
X85170838Y-105341167D01*
X85312883Y-105684943D01*
X85575673Y-105948192D01*
X85919201Y-106090838D01*
X86291167Y-106091162D01*
X86634943Y-105949117D01*
X86898192Y-105686327D01*
X87040838Y-105342799D01*
X87041110Y-105029690D01*
X88519000Y-105029690D01*
X88519000Y-106140250D01*
X88677750Y-106299000D01*
X90297000Y-106299000D01*
X90297000Y-104679750D01*
X90551000Y-104679750D01*
X90551000Y-106299000D01*
X92170250Y-106299000D01*
X92329000Y-106140250D01*
X92329000Y-105029690D01*
X92232327Y-104796301D01*
X92053698Y-104617673D01*
X91820309Y-104521000D01*
X90709750Y-104521000D01*
X90551000Y-104679750D01*
X90297000Y-104679750D01*
X90138250Y-104521000D01*
X89027691Y-104521000D01*
X88794302Y-104617673D01*
X88615673Y-104796301D01*
X88519000Y-105029690D01*
X87041110Y-105029690D01*
X87041162Y-104970833D01*
X86899117Y-104627057D01*
X86636327Y-104363808D01*
X86292799Y-104221162D01*
X85920833Y-104220838D01*
X85577057Y-104362883D01*
X85313808Y-104625673D01*
X85171162Y-104969201D01*
X85170838Y-105341167D01*
X82827613Y-105341167D01*
X82677000Y-105190554D01*
X82677000Y-102499016D01*
X83100590Y-102499016D01*
X83156271Y-102729611D01*
X83639078Y-102897622D01*
X84149428Y-102868083D01*
X84483729Y-102729611D01*
X84539410Y-102499016D01*
X83820000Y-101779605D01*
X83100590Y-102499016D01*
X82677000Y-102499016D01*
X82677000Y-102231405D01*
X82690389Y-102263729D01*
X82920984Y-102319410D01*
X83640395Y-101600000D01*
X82920984Y-100880590D01*
X82690389Y-100936271D01*
X82677000Y-100974746D01*
X82677000Y-100700984D01*
X83100590Y-100700984D01*
X83820000Y-101420395D01*
X84539410Y-100700984D01*
X84483729Y-100470389D01*
X84000922Y-100302378D01*
X83490572Y-100331917D01*
X83156271Y-100470389D01*
X83100590Y-100700984D01*
X82677000Y-100700984D01*
X82677000Y-98958498D01*
X82918846Y-98717073D01*
X83168206Y-98116547D01*
X83168774Y-97466306D01*
X83154980Y-97432921D01*
X83185000Y-97282000D01*
X83185000Y-95689167D01*
X84662838Y-95689167D01*
X84804883Y-96032943D01*
X85067673Y-96296192D01*
X85411201Y-96438838D01*
X85783167Y-96439162D01*
X86126943Y-96297117D01*
X86390192Y-96034327D01*
X86532838Y-95690799D01*
X86533162Y-95318833D01*
X86391117Y-94975057D01*
X86128327Y-94711808D01*
X85784799Y-94569162D01*
X85412833Y-94568838D01*
X85069057Y-94710883D01*
X84805808Y-94973673D01*
X84663162Y-95317201D01*
X84662838Y-95689167D01*
X83185000Y-95689167D01*
X83185000Y-92725000D01*
X83280250Y-92725000D01*
X83439000Y-92566250D01*
X83439000Y-91567000D01*
X83419000Y-91567000D01*
X83419000Y-91313000D01*
X83439000Y-91313000D01*
X83439000Y-90313750D01*
X83280250Y-90155000D01*
X83185000Y-90155000D01*
X83185000Y-89916000D01*
X83097994Y-89478593D01*
X82850223Y-89107777D01*
X80388196Y-86645750D01*
X82281000Y-86645750D01*
X82281000Y-87136310D01*
X82377673Y-87369699D01*
X82556302Y-87548327D01*
X82789691Y-87645000D01*
X83280250Y-87645000D01*
X83439000Y-87486250D01*
X83439000Y-86487000D01*
X82439750Y-86487000D01*
X82281000Y-86645750D01*
X80388196Y-86645750D01*
X79326136Y-85583690D01*
X82281000Y-85583690D01*
X82281000Y-86074250D01*
X82439750Y-86233000D01*
X83439000Y-86233000D01*
X83439000Y-85233750D01*
X83280250Y-85075000D01*
X82789691Y-85075000D01*
X82556302Y-85171673D01*
X82377673Y-85350301D01*
X82281000Y-85583690D01*
X79326136Y-85583690D01*
X79121000Y-85378554D01*
X79121000Y-83439000D01*
X80552554Y-83439000D01*
X80685777Y-83572223D01*
X81056593Y-83819994D01*
X81494000Y-83907000D01*
X82967839Y-83907000D01*
X83309276Y-84048777D01*
X83820481Y-84049223D01*
X84164686Y-83907000D01*
X86100554Y-83907000D01*
X87763614Y-85570060D01*
X87093118Y-85570060D01*
X86794845Y-85271265D01*
X86322724Y-85075223D01*
X85811519Y-85074777D01*
X85339057Y-85269995D01*
X84977265Y-85631155D01*
X84851000Y-85935235D01*
X84851000Y-85583690D01*
X84754327Y-85350301D01*
X84575698Y-85171673D01*
X84342309Y-85075000D01*
X83851750Y-85075000D01*
X83693000Y-85233750D01*
X83693000Y-86233000D01*
X83713000Y-86233000D01*
X83713000Y-86487000D01*
X83693000Y-86487000D01*
X83693000Y-87486250D01*
X83851750Y-87645000D01*
X84342309Y-87645000D01*
X84575698Y-87548327D01*
X84754327Y-87369699D01*
X84851000Y-87136310D01*
X84851000Y-86784433D01*
X84975995Y-87086943D01*
X85337155Y-87448735D01*
X85809276Y-87644777D01*
X86320481Y-87645223D01*
X86792943Y-87450005D01*
X86895066Y-87348060D01*
X88845666Y-87348060D01*
X89130113Y-87633004D01*
X89639184Y-87844389D01*
X90190398Y-87844870D01*
X90699837Y-87634374D01*
X90824596Y-87509832D01*
X91573382Y-88258618D01*
X91861794Y-88451329D01*
X92202000Y-88519000D01*
X92632355Y-88519000D01*
X92635519Y-88526657D01*
X93008471Y-88900261D01*
X92637086Y-89270997D01*
X92632932Y-89281000D01*
X92456000Y-89281000D01*
X92115794Y-89348671D01*
X91827382Y-89541382D01*
X90951609Y-90417155D01*
X90701887Y-90166996D01*
X90192816Y-89955611D01*
X89641602Y-89955130D01*
X89132163Y-90165626D01*
X88746116Y-90551000D01*
X86994231Y-90551000D01*
X86794845Y-90351265D01*
X86322724Y-90155223D01*
X85811519Y-90154777D01*
X85339057Y-90349995D01*
X84977265Y-90711155D01*
X84851000Y-91015235D01*
X84851000Y-90663690D01*
X84754327Y-90430301D01*
X84575698Y-90251673D01*
X84342309Y-90155000D01*
X83851750Y-90155000D01*
X83693000Y-90313750D01*
X83693000Y-91313000D01*
X83713000Y-91313000D01*
X83713000Y-91567000D01*
X83693000Y-91567000D01*
X83693000Y-92566250D01*
X83851750Y-92725000D01*
X84342309Y-92725000D01*
X84575698Y-92628327D01*
X84754327Y-92449699D01*
X84851000Y-92216310D01*
X84851000Y-91864433D01*
X84975995Y-92166943D01*
X85337155Y-92528735D01*
X85809276Y-92724777D01*
X86320481Y-92725223D01*
X86792943Y-92530005D01*
X86994300Y-92329000D01*
X88944553Y-92329000D01*
X89130113Y-92514884D01*
X89639184Y-92726269D01*
X90190398Y-92726750D01*
X90699837Y-92516254D01*
X90986651Y-92229940D01*
X91285060Y-92229940D01*
X91625266Y-92162269D01*
X91913678Y-91969558D01*
X92725970Y-91157266D01*
X93008471Y-91440261D01*
X92637086Y-91810997D01*
X92395276Y-92393341D01*
X92394725Y-93023893D01*
X92635519Y-93606657D01*
X93008471Y-93980261D01*
X92637086Y-94350997D01*
X92395276Y-94933341D01*
X92394725Y-95563893D01*
X92635519Y-96146657D01*
X93008471Y-96520261D01*
X92871987Y-96656506D01*
X92621073Y-96405154D01*
X92020547Y-96155794D01*
X91370306Y-96155226D01*
X90769345Y-96403538D01*
X90309154Y-96862927D01*
X90059794Y-97463453D01*
X90059226Y-98113694D01*
X90307538Y-98714655D01*
X90766927Y-99174846D01*
X90805000Y-99190655D01*
X90805000Y-99199764D01*
X89293764Y-100711000D01*
X87288231Y-100711000D01*
X87088845Y-100511265D01*
X86616724Y-100315223D01*
X86105519Y-100314777D01*
X85633057Y-100509995D01*
X85271265Y-100871155D01*
X85090203Y-101307200D01*
X85088083Y-101270572D01*
X84949611Y-100936271D01*
X84719016Y-100880590D01*
X83999605Y-101600000D01*
X84719016Y-102319410D01*
X84949611Y-102263729D01*
X85084139Y-101877140D01*
X85269995Y-102326943D01*
X85631155Y-102688735D01*
X86103276Y-102884777D01*
X86614481Y-102885223D01*
X87086943Y-102690005D01*
X87288300Y-102489000D01*
X89662000Y-102489000D01*
X90002206Y-102421329D01*
X90290618Y-102228618D01*
X92322618Y-100196618D01*
X92333036Y-100181026D01*
X92395211Y-100087975D01*
X92394725Y-100643893D01*
X92635519Y-101226657D01*
X93080997Y-101672914D01*
X93663341Y-101914724D01*
X94293893Y-101915275D01*
X94694817Y-101749616D01*
X94682671Y-101767794D01*
X94615000Y-102108000D01*
X94615000Y-104732115D01*
X94426314Y-104810078D01*
X93889961Y-105345495D01*
X93599332Y-106045410D01*
X93598670Y-106803265D01*
X93888078Y-107503686D01*
X94423495Y-108040039D01*
X95123410Y-108330668D01*
X95881265Y-108331330D01*
X96581686Y-108041922D01*
X97118039Y-107506505D01*
X97408668Y-106806590D01*
X97409330Y-106048735D01*
X97119922Y-105348314D01*
X96584505Y-104811961D01*
X96393000Y-104732441D01*
X96393000Y-102476236D01*
X96894618Y-101974618D01*
X96974891Y-101854481D01*
X97087329Y-101686206D01*
X97155000Y-101346000D01*
X97155000Y-96012000D01*
X97087329Y-95671794D01*
X96894618Y-95383382D01*
X96132618Y-94621382D01*
X95863820Y-94441777D01*
X95844206Y-94428671D01*
X95504000Y-94361000D01*
X95327645Y-94361000D01*
X95324481Y-94353343D01*
X94951529Y-93979739D01*
X95205712Y-93726000D01*
X97536000Y-93726000D01*
X97860300Y-93661493D01*
X97924807Y-93648662D01*
X98254420Y-93428420D01*
X100032421Y-91650420D01*
X100252662Y-91320807D01*
X100295290Y-91106498D01*
X100628471Y-91440261D01*
X100257086Y-91810997D01*
X100015276Y-92393341D01*
X100014725Y-93023893D01*
X100255519Y-93606657D01*
X100628471Y-93980261D01*
X100257086Y-94350997D01*
X100015276Y-94933341D01*
X100014725Y-95563893D01*
X100255519Y-96146657D01*
X100628471Y-96520261D01*
X100257086Y-96890997D01*
X100015276Y-97473341D01*
X100014725Y-98103893D01*
X100255519Y-98686657D01*
X100628471Y-99060261D01*
X100257086Y-99430997D01*
X100015276Y-100013341D01*
X100014725Y-100643893D01*
X100255519Y-101226657D01*
X100700997Y-101672914D01*
X101283341Y-101914724D01*
X101913893Y-101915275D01*
X102496657Y-101674481D01*
X102942914Y-101229003D01*
X103184724Y-100646659D01*
X103185275Y-100016107D01*
X102944481Y-99433343D01*
X102571529Y-99059739D01*
X102942914Y-98689003D01*
X103184724Y-98106659D01*
X103185275Y-97476107D01*
X102944481Y-96893343D01*
X102571529Y-96519739D01*
X102942914Y-96149003D01*
X102947068Y-96139000D01*
X103505000Y-96139000D01*
X103845206Y-96071329D01*
X104133618Y-95878618D01*
X104381236Y-95631000D01*
X105321547Y-95631000D01*
X105435585Y-95801670D01*
X105750366Y-96012000D01*
X105435585Y-96222330D01*
X105110729Y-96708511D01*
X104996655Y-97282000D01*
X105110729Y-97855489D01*
X105435585Y-98341670D01*
X105745069Y-98548461D01*
X105329268Y-98919964D01*
X105075291Y-99447209D01*
X105072642Y-99462974D01*
X105193783Y-99695000D01*
X106553000Y-99695000D01*
X106553000Y-99675000D01*
X106807000Y-99675000D01*
X106807000Y-99695000D01*
X108166217Y-99695000D01*
X108287358Y-99462974D01*
X108284709Y-99447209D01*
X108030732Y-98919964D01*
X107614931Y-98548461D01*
X107924415Y-98341670D01*
X108249271Y-97855489D01*
X108363345Y-97282000D01*
X108249271Y-96708511D01*
X107924415Y-96222330D01*
X107609634Y-96012000D01*
X107924415Y-95801670D01*
X108249271Y-95315489D01*
X108363345Y-94742000D01*
X108249271Y-94168511D01*
X107924415Y-93682330D01*
X107910087Y-93672757D01*
X107931317Y-93668762D01*
X108147441Y-93529690D01*
X108292431Y-93317490D01*
X108343440Y-93065600D01*
X108343440Y-91338400D01*
X108299162Y-91103083D01*
X108160090Y-90886959D01*
X107947890Y-90741969D01*
X107696000Y-90690960D01*
X105664000Y-90690960D01*
X105428683Y-90735238D01*
X105212559Y-90874310D01*
X105067569Y-91086510D01*
X105016560Y-91338400D01*
X105016560Y-93065600D01*
X105060838Y-93300917D01*
X105199910Y-93517041D01*
X105412110Y-93662031D01*
X105453439Y-93670400D01*
X105435585Y-93682330D01*
X105321547Y-93853000D01*
X104013000Y-93853000D01*
X103672794Y-93920671D01*
X103384382Y-94113382D01*
X103136764Y-94361000D01*
X102947645Y-94361000D01*
X102944481Y-94353343D01*
X102571529Y-93979739D01*
X102942914Y-93609003D01*
X103184724Y-93026659D01*
X103185275Y-92396107D01*
X102944481Y-91813343D01*
X102571529Y-91439739D01*
X102942914Y-91069003D01*
X103184724Y-90486659D01*
X103185275Y-89856107D01*
X102944481Y-89273343D01*
X102571529Y-88899739D01*
X102942914Y-88529003D01*
X103184724Y-87946659D01*
X103185275Y-87316107D01*
X102944481Y-86733343D01*
X102505789Y-86293884D01*
X102536745Y-86206350D01*
X101600000Y-85269605D01*
X100663255Y-86206350D01*
X100694407Y-86294439D01*
X100330000Y-86658210D01*
X100330000Y-85972408D01*
X100483650Y-86026745D01*
X101420395Y-85090000D01*
X101779605Y-85090000D01*
X102716350Y-86026745D01*
X102978019Y-85934208D01*
X103196188Y-85342602D01*
X103171352Y-84712539D01*
X102978019Y-84245792D01*
X102716350Y-84153255D01*
X101779605Y-85090000D01*
X101420395Y-85090000D01*
X101406253Y-85075858D01*
X101585858Y-84896253D01*
X101600000Y-84910395D01*
X102536745Y-83973650D01*
X102444208Y-83711981D01*
X101852602Y-83493812D01*
X101574048Y-83504792D01*
X103378000Y-81700841D01*
X104183579Y-82506420D01*
X104183579Y-82506420D01*
G37*
X104183579Y-82506420D02*
X104342577Y-82612659D01*
X104513194Y-82726662D01*
X104902000Y-82804000D01*
X107416724Y-82804000D01*
X107784927Y-83172846D01*
X108385453Y-83422206D01*
X109035694Y-83422774D01*
X109636655Y-83174462D01*
X110011000Y-82800769D01*
X110011000Y-107387273D01*
X109612240Y-106987817D01*
X108864562Y-106677354D01*
X108054989Y-106676648D01*
X107306771Y-106985805D01*
X106733817Y-107557760D01*
X106423354Y-108305438D01*
X106422648Y-109115011D01*
X106731805Y-109863229D01*
X107303760Y-110436183D01*
X107377976Y-110467000D01*
X100191446Y-110467000D01*
X101057446Y-109601000D01*
X103124000Y-109601000D01*
X103561407Y-109513994D01*
X103932223Y-109266223D01*
X106797846Y-106400600D01*
X106864745Y-106400600D01*
X107438234Y-106286526D01*
X107924415Y-105961670D01*
X108249271Y-105475489D01*
X108363345Y-104902000D01*
X108249271Y-104328511D01*
X107924415Y-103842330D01*
X107823000Y-103774567D01*
X107823000Y-103489433D01*
X107924415Y-103421670D01*
X108249271Y-102935489D01*
X108363345Y-102362000D01*
X108249271Y-101788511D01*
X107924415Y-101302330D01*
X107614931Y-101095539D01*
X108030732Y-100724036D01*
X108284709Y-100196791D01*
X108287358Y-100181026D01*
X108166217Y-99949000D01*
X106807000Y-99949000D01*
X106807000Y-99969000D01*
X106553000Y-99969000D01*
X106553000Y-99949000D01*
X105193783Y-99949000D01*
X105072642Y-100181026D01*
X105075291Y-100196791D01*
X105329268Y-100724036D01*
X105745069Y-101095539D01*
X105435585Y-101302330D01*
X105110729Y-101788511D01*
X104996655Y-102362000D01*
X105110729Y-102935489D01*
X105435585Y-103421670D01*
X105537000Y-103489433D01*
X105537000Y-103774567D01*
X105435585Y-103842330D01*
X105110729Y-104328511D01*
X104996655Y-104902000D01*
X105007754Y-104957800D01*
X104682554Y-105283000D01*
X102134722Y-105283000D01*
X101664505Y-104811961D01*
X100964590Y-104521332D01*
X100206735Y-104520670D01*
X99506314Y-104810078D01*
X98969961Y-105345495D01*
X98679332Y-106045410D01*
X98678670Y-106803265D01*
X98968078Y-107503686D01*
X99441000Y-107977435D01*
X99441000Y-107984554D01*
X98586554Y-108839000D01*
X86325446Y-108839000D01*
X84198196Y-106711750D01*
X88519000Y-106711750D01*
X88519000Y-107822310D01*
X88615673Y-108055699D01*
X88794302Y-108234327D01*
X89027691Y-108331000D01*
X90138250Y-108331000D01*
X90297000Y-108172250D01*
X90297000Y-106553000D01*
X90551000Y-106553000D01*
X90551000Y-108172250D01*
X90709750Y-108331000D01*
X91820309Y-108331000D01*
X92053698Y-108234327D01*
X92232327Y-108055699D01*
X92329000Y-107822310D01*
X92329000Y-106711750D01*
X92170250Y-106553000D01*
X90551000Y-106553000D01*
X90297000Y-106553000D01*
X88677750Y-106553000D01*
X88519000Y-106711750D01*
X84198196Y-106711750D01*
X82827613Y-105341167D01*
X85170838Y-105341167D01*
X85312883Y-105684943D01*
X85575673Y-105948192D01*
X85919201Y-106090838D01*
X86291167Y-106091162D01*
X86634943Y-105949117D01*
X86898192Y-105686327D01*
X87040838Y-105342799D01*
X87041110Y-105029690D01*
X88519000Y-105029690D01*
X88519000Y-106140250D01*
X88677750Y-106299000D01*
X90297000Y-106299000D01*
X90297000Y-104679750D01*
X90551000Y-104679750D01*
X90551000Y-106299000D01*
X92170250Y-106299000D01*
X92329000Y-106140250D01*
X92329000Y-105029690D01*
X92232327Y-104796301D01*
X92053698Y-104617673D01*
X91820309Y-104521000D01*
X90709750Y-104521000D01*
X90551000Y-104679750D01*
X90297000Y-104679750D01*
X90138250Y-104521000D01*
X89027691Y-104521000D01*
X88794302Y-104617673D01*
X88615673Y-104796301D01*
X88519000Y-105029690D01*
X87041110Y-105029690D01*
X87041162Y-104970833D01*
X86899117Y-104627057D01*
X86636327Y-104363808D01*
X86292799Y-104221162D01*
X85920833Y-104220838D01*
X85577057Y-104362883D01*
X85313808Y-104625673D01*
X85171162Y-104969201D01*
X85170838Y-105341167D01*
X82827613Y-105341167D01*
X82677000Y-105190554D01*
X82677000Y-102499016D01*
X83100590Y-102499016D01*
X83156271Y-102729611D01*
X83639078Y-102897622D01*
X84149428Y-102868083D01*
X84483729Y-102729611D01*
X84539410Y-102499016D01*
X83820000Y-101779605D01*
X83100590Y-102499016D01*
X82677000Y-102499016D01*
X82677000Y-102231405D01*
X82690389Y-102263729D01*
X82920984Y-102319410D01*
X83640395Y-101600000D01*
X82920984Y-100880590D01*
X82690389Y-100936271D01*
X82677000Y-100974746D01*
X82677000Y-100700984D01*
X83100590Y-100700984D01*
X83820000Y-101420395D01*
X84539410Y-100700984D01*
X84483729Y-100470389D01*
X84000922Y-100302378D01*
X83490572Y-100331917D01*
X83156271Y-100470389D01*
X83100590Y-100700984D01*
X82677000Y-100700984D01*
X82677000Y-98958498D01*
X82918846Y-98717073D01*
X83168206Y-98116547D01*
X83168774Y-97466306D01*
X83154980Y-97432921D01*
X83185000Y-97282000D01*
X83185000Y-95689167D01*
X84662838Y-95689167D01*
X84804883Y-96032943D01*
X85067673Y-96296192D01*
X85411201Y-96438838D01*
X85783167Y-96439162D01*
X86126943Y-96297117D01*
X86390192Y-96034327D01*
X86532838Y-95690799D01*
X86533162Y-95318833D01*
X86391117Y-94975057D01*
X86128327Y-94711808D01*
X85784799Y-94569162D01*
X85412833Y-94568838D01*
X85069057Y-94710883D01*
X84805808Y-94973673D01*
X84663162Y-95317201D01*
X84662838Y-95689167D01*
X83185000Y-95689167D01*
X83185000Y-92725000D01*
X83280250Y-92725000D01*
X83439000Y-92566250D01*
X83439000Y-91567000D01*
X83419000Y-91567000D01*
X83419000Y-91313000D01*
X83439000Y-91313000D01*
X83439000Y-90313750D01*
X83280250Y-90155000D01*
X83185000Y-90155000D01*
X83185000Y-89916000D01*
X83097994Y-89478593D01*
X82850223Y-89107777D01*
X80388196Y-86645750D01*
X82281000Y-86645750D01*
X82281000Y-87136310D01*
X82377673Y-87369699D01*
X82556302Y-87548327D01*
X82789691Y-87645000D01*
X83280250Y-87645000D01*
X83439000Y-87486250D01*
X83439000Y-86487000D01*
X82439750Y-86487000D01*
X82281000Y-86645750D01*
X80388196Y-86645750D01*
X79326136Y-85583690D01*
X82281000Y-85583690D01*
X82281000Y-86074250D01*
X82439750Y-86233000D01*
X83439000Y-86233000D01*
X83439000Y-85233750D01*
X83280250Y-85075000D01*
X82789691Y-85075000D01*
X82556302Y-85171673D01*
X82377673Y-85350301D01*
X82281000Y-85583690D01*
X79326136Y-85583690D01*
X79121000Y-85378554D01*
X79121000Y-83439000D01*
X80552554Y-83439000D01*
X80685777Y-83572223D01*
X81056593Y-83819994D01*
X81494000Y-83907000D01*
X82967839Y-83907000D01*
X83309276Y-84048777D01*
X83820481Y-84049223D01*
X84164686Y-83907000D01*
X86100554Y-83907000D01*
X87763614Y-85570060D01*
X87093118Y-85570060D01*
X86794845Y-85271265D01*
X86322724Y-85075223D01*
X85811519Y-85074777D01*
X85339057Y-85269995D01*
X84977265Y-85631155D01*
X84851000Y-85935235D01*
X84851000Y-85583690D01*
X84754327Y-85350301D01*
X84575698Y-85171673D01*
X84342309Y-85075000D01*
X83851750Y-85075000D01*
X83693000Y-85233750D01*
X83693000Y-86233000D01*
X83713000Y-86233000D01*
X83713000Y-86487000D01*
X83693000Y-86487000D01*
X83693000Y-87486250D01*
X83851750Y-87645000D01*
X84342309Y-87645000D01*
X84575698Y-87548327D01*
X84754327Y-87369699D01*
X84851000Y-87136310D01*
X84851000Y-86784433D01*
X84975995Y-87086943D01*
X85337155Y-87448735D01*
X85809276Y-87644777D01*
X86320481Y-87645223D01*
X86792943Y-87450005D01*
X86895066Y-87348060D01*
X88845666Y-87348060D01*
X89130113Y-87633004D01*
X89639184Y-87844389D01*
X90190398Y-87844870D01*
X90699837Y-87634374D01*
X90824596Y-87509832D01*
X91573382Y-88258618D01*
X91861794Y-88451329D01*
X92202000Y-88519000D01*
X92632355Y-88519000D01*
X92635519Y-88526657D01*
X93008471Y-88900261D01*
X92637086Y-89270997D01*
X92632932Y-89281000D01*
X92456000Y-89281000D01*
X92115794Y-89348671D01*
X91827382Y-89541382D01*
X90951609Y-90417155D01*
X90701887Y-90166996D01*
X90192816Y-89955611D01*
X89641602Y-89955130D01*
X89132163Y-90165626D01*
X88746116Y-90551000D01*
X86994231Y-90551000D01*
X86794845Y-90351265D01*
X86322724Y-90155223D01*
X85811519Y-90154777D01*
X85339057Y-90349995D01*
X84977265Y-90711155D01*
X84851000Y-91015235D01*
X84851000Y-90663690D01*
X84754327Y-90430301D01*
X84575698Y-90251673D01*
X84342309Y-90155000D01*
X83851750Y-90155000D01*
X83693000Y-90313750D01*
X83693000Y-91313000D01*
X83713000Y-91313000D01*
X83713000Y-91567000D01*
X83693000Y-91567000D01*
X83693000Y-92566250D01*
X83851750Y-92725000D01*
X84342309Y-92725000D01*
X84575698Y-92628327D01*
X84754327Y-92449699D01*
X84851000Y-92216310D01*
X84851000Y-91864433D01*
X84975995Y-92166943D01*
X85337155Y-92528735D01*
X85809276Y-92724777D01*
X86320481Y-92725223D01*
X86792943Y-92530005D01*
X86994300Y-92329000D01*
X88944553Y-92329000D01*
X89130113Y-92514884D01*
X89639184Y-92726269D01*
X90190398Y-92726750D01*
X90699837Y-92516254D01*
X90986651Y-92229940D01*
X91285060Y-92229940D01*
X91625266Y-92162269D01*
X91913678Y-91969558D01*
X92725970Y-91157266D01*
X93008471Y-91440261D01*
X92637086Y-91810997D01*
X92395276Y-92393341D01*
X92394725Y-93023893D01*
X92635519Y-93606657D01*
X93008471Y-93980261D01*
X92637086Y-94350997D01*
X92395276Y-94933341D01*
X92394725Y-95563893D01*
X92635519Y-96146657D01*
X93008471Y-96520261D01*
X92871987Y-96656506D01*
X92621073Y-96405154D01*
X92020547Y-96155794D01*
X91370306Y-96155226D01*
X90769345Y-96403538D01*
X90309154Y-96862927D01*
X90059794Y-97463453D01*
X90059226Y-98113694D01*
X90307538Y-98714655D01*
X90766927Y-99174846D01*
X90805000Y-99190655D01*
X90805000Y-99199764D01*
X89293764Y-100711000D01*
X87288231Y-100711000D01*
X87088845Y-100511265D01*
X86616724Y-100315223D01*
X86105519Y-100314777D01*
X85633057Y-100509995D01*
X85271265Y-100871155D01*
X85090203Y-101307200D01*
X85088083Y-101270572D01*
X84949611Y-100936271D01*
X84719016Y-100880590D01*
X83999605Y-101600000D01*
X84719016Y-102319410D01*
X84949611Y-102263729D01*
X85084139Y-101877140D01*
X85269995Y-102326943D01*
X85631155Y-102688735D01*
X86103276Y-102884777D01*
X86614481Y-102885223D01*
X87086943Y-102690005D01*
X87288300Y-102489000D01*
X89662000Y-102489000D01*
X90002206Y-102421329D01*
X90290618Y-102228618D01*
X92322618Y-100196618D01*
X92333036Y-100181026D01*
X92395211Y-100087975D01*
X92394725Y-100643893D01*
X92635519Y-101226657D01*
X93080997Y-101672914D01*
X93663341Y-101914724D01*
X94293893Y-101915275D01*
X94694817Y-101749616D01*
X94682671Y-101767794D01*
X94615000Y-102108000D01*
X94615000Y-104732115D01*
X94426314Y-104810078D01*
X93889961Y-105345495D01*
X93599332Y-106045410D01*
X93598670Y-106803265D01*
X93888078Y-107503686D01*
X94423495Y-108040039D01*
X95123410Y-108330668D01*
X95881265Y-108331330D01*
X96581686Y-108041922D01*
X97118039Y-107506505D01*
X97408668Y-106806590D01*
X97409330Y-106048735D01*
X97119922Y-105348314D01*
X96584505Y-104811961D01*
X96393000Y-104732441D01*
X96393000Y-102476236D01*
X96894618Y-101974618D01*
X96974891Y-101854481D01*
X97087329Y-101686206D01*
X97155000Y-101346000D01*
X97155000Y-96012000D01*
X97087329Y-95671794D01*
X96894618Y-95383382D01*
X96132618Y-94621382D01*
X95863820Y-94441777D01*
X95844206Y-94428671D01*
X95504000Y-94361000D01*
X95327645Y-94361000D01*
X95324481Y-94353343D01*
X94951529Y-93979739D01*
X95205712Y-93726000D01*
X97536000Y-93726000D01*
X97860300Y-93661493D01*
X97924807Y-93648662D01*
X98254420Y-93428420D01*
X100032421Y-91650420D01*
X100252662Y-91320807D01*
X100295290Y-91106498D01*
X100628471Y-91440261D01*
X100257086Y-91810997D01*
X100015276Y-92393341D01*
X100014725Y-93023893D01*
X100255519Y-93606657D01*
X100628471Y-93980261D01*
X100257086Y-94350997D01*
X100015276Y-94933341D01*
X100014725Y-95563893D01*
X100255519Y-96146657D01*
X100628471Y-96520261D01*
X100257086Y-96890997D01*
X100015276Y-97473341D01*
X100014725Y-98103893D01*
X100255519Y-98686657D01*
X100628471Y-99060261D01*
X100257086Y-99430997D01*
X100015276Y-100013341D01*
X100014725Y-100643893D01*
X100255519Y-101226657D01*
X100700997Y-101672914D01*
X101283341Y-101914724D01*
X101913893Y-101915275D01*
X102496657Y-101674481D01*
X102942914Y-101229003D01*
X103184724Y-100646659D01*
X103185275Y-100016107D01*
X102944481Y-99433343D01*
X102571529Y-99059739D01*
X102942914Y-98689003D01*
X103184724Y-98106659D01*
X103185275Y-97476107D01*
X102944481Y-96893343D01*
X102571529Y-96519739D01*
X102942914Y-96149003D01*
X102947068Y-96139000D01*
X103505000Y-96139000D01*
X103845206Y-96071329D01*
X104133618Y-95878618D01*
X104381236Y-95631000D01*
X105321547Y-95631000D01*
X105435585Y-95801670D01*
X105750366Y-96012000D01*
X105435585Y-96222330D01*
X105110729Y-96708511D01*
X104996655Y-97282000D01*
X105110729Y-97855489D01*
X105435585Y-98341670D01*
X105745069Y-98548461D01*
X105329268Y-98919964D01*
X105075291Y-99447209D01*
X105072642Y-99462974D01*
X105193783Y-99695000D01*
X106553000Y-99695000D01*
X106553000Y-99675000D01*
X106807000Y-99675000D01*
X106807000Y-99695000D01*
X108166217Y-99695000D01*
X108287358Y-99462974D01*
X108284709Y-99447209D01*
X108030732Y-98919964D01*
X107614931Y-98548461D01*
X107924415Y-98341670D01*
X108249271Y-97855489D01*
X108363345Y-97282000D01*
X108249271Y-96708511D01*
X107924415Y-96222330D01*
X107609634Y-96012000D01*
X107924415Y-95801670D01*
X108249271Y-95315489D01*
X108363345Y-94742000D01*
X108249271Y-94168511D01*
X107924415Y-93682330D01*
X107910087Y-93672757D01*
X107931317Y-93668762D01*
X108147441Y-93529690D01*
X108292431Y-93317490D01*
X108343440Y-93065600D01*
X108343440Y-91338400D01*
X108299162Y-91103083D01*
X108160090Y-90886959D01*
X107947890Y-90741969D01*
X107696000Y-90690960D01*
X105664000Y-90690960D01*
X105428683Y-90735238D01*
X105212559Y-90874310D01*
X105067569Y-91086510D01*
X105016560Y-91338400D01*
X105016560Y-93065600D01*
X105060838Y-93300917D01*
X105199910Y-93517041D01*
X105412110Y-93662031D01*
X105453439Y-93670400D01*
X105435585Y-93682330D01*
X105321547Y-93853000D01*
X104013000Y-93853000D01*
X103672794Y-93920671D01*
X103384382Y-94113382D01*
X103136764Y-94361000D01*
X102947645Y-94361000D01*
X102944481Y-94353343D01*
X102571529Y-93979739D01*
X102942914Y-93609003D01*
X103184724Y-93026659D01*
X103185275Y-92396107D01*
X102944481Y-91813343D01*
X102571529Y-91439739D01*
X102942914Y-91069003D01*
X103184724Y-90486659D01*
X103185275Y-89856107D01*
X102944481Y-89273343D01*
X102571529Y-88899739D01*
X102942914Y-88529003D01*
X103184724Y-87946659D01*
X103185275Y-87316107D01*
X102944481Y-86733343D01*
X102505789Y-86293884D01*
X102536745Y-86206350D01*
X101600000Y-85269605D01*
X100663255Y-86206350D01*
X100694407Y-86294439D01*
X100330000Y-86658210D01*
X100330000Y-85972408D01*
X100483650Y-86026745D01*
X101420395Y-85090000D01*
X101779605Y-85090000D01*
X102716350Y-86026745D01*
X102978019Y-85934208D01*
X103196188Y-85342602D01*
X103171352Y-84712539D01*
X102978019Y-84245792D01*
X102716350Y-84153255D01*
X101779605Y-85090000D01*
X101420395Y-85090000D01*
X101406253Y-85075858D01*
X101585858Y-84896253D01*
X101600000Y-84910395D01*
X102536745Y-83973650D01*
X102444208Y-83711981D01*
X101852602Y-83493812D01*
X101574048Y-83504792D01*
X103378000Y-81700841D01*
X104183579Y-82506420D01*
G36*
X109224585Y-71506596D02*
X109630308Y-71777691D01*
X109901404Y-72183416D01*
X110009409Y-72726393D01*
X109836019Y-72307792D01*
X109574350Y-72215255D01*
X108637605Y-73152000D01*
X109574350Y-74088745D01*
X109836019Y-73996208D01*
X110011000Y-73521714D01*
X110011000Y-77810233D01*
X109836019Y-77387792D01*
X109574350Y-77295255D01*
X108637605Y-78232000D01*
X109574350Y-79168745D01*
X109836019Y-79076208D01*
X110011000Y-78601714D01*
X110011000Y-80775730D01*
X109639073Y-80403154D01*
X109038547Y-80153794D01*
X108388306Y-80153226D01*
X107787345Y-80401538D01*
X107416236Y-80772000D01*
X105322841Y-80772000D01*
X104394000Y-79843160D01*
X104394000Y-79457346D01*
X104503186Y-79348350D01*
X107521255Y-79348350D01*
X107613792Y-79610019D01*
X108205398Y-79828188D01*
X108835461Y-79803352D01*
X109302208Y-79610019D01*
X109394745Y-79348350D01*
X108458000Y-78411605D01*
X107521255Y-79348350D01*
X104503186Y-79348350D01*
X104720914Y-79131003D01*
X104962724Y-78548659D01*
X104963221Y-77979398D01*
X106861812Y-77979398D01*
X106886648Y-78609461D01*
X107079981Y-79076208D01*
X107341650Y-79168745D01*
X108278395Y-78232000D01*
X107341650Y-77295255D01*
X107079981Y-77387792D01*
X106861812Y-77979398D01*
X104963221Y-77979398D01*
X104963275Y-77918107D01*
X104722481Y-77335343D01*
X104503172Y-77115650D01*
X107521255Y-77115650D01*
X108458000Y-78052395D01*
X109394745Y-77115650D01*
X109302208Y-76853981D01*
X108710602Y-76635812D01*
X108080539Y-76660648D01*
X107613792Y-76853981D01*
X107521255Y-77115650D01*
X104503172Y-77115650D01*
X104394000Y-77006288D01*
X104394000Y-74377346D01*
X104503186Y-74268350D01*
X107521255Y-74268350D01*
X107613792Y-74530019D01*
X108205398Y-74748188D01*
X108835461Y-74723352D01*
X109302208Y-74530019D01*
X109394745Y-74268350D01*
X108458000Y-73331605D01*
X107521255Y-74268350D01*
X104503186Y-74268350D01*
X104720914Y-74051003D01*
X104962724Y-73468659D01*
X104963221Y-72899398D01*
X106861812Y-72899398D01*
X106886648Y-73529461D01*
X107079981Y-73996208D01*
X107341650Y-74088745D01*
X108278395Y-73152000D01*
X107341650Y-72215255D01*
X107079981Y-72307792D01*
X106861812Y-72899398D01*
X104963221Y-72899398D01*
X104963275Y-72838107D01*
X104722481Y-72255343D01*
X104503172Y-72035650D01*
X107521255Y-72035650D01*
X108458000Y-72972395D01*
X109394745Y-72035650D01*
X109302208Y-71773981D01*
X108710602Y-71555812D01*
X108080539Y-71580648D01*
X107613792Y-71773981D01*
X107521255Y-72035650D01*
X104503172Y-72035650D01*
X104277003Y-71809086D01*
X103694659Y-71567276D01*
X103064107Y-71566725D01*
X102481343Y-71807519D01*
X102035086Y-72252997D01*
X101793276Y-72835341D01*
X101792725Y-73465893D01*
X102033519Y-74048657D01*
X102362000Y-74377712D01*
X102362000Y-77006654D01*
X102152288Y-77216000D01*
X99480841Y-77216000D01*
X99016420Y-76751580D01*
X98686807Y-76531338D01*
X98622300Y-76518507D01*
X98298000Y-76454000D01*
X94993399Y-76454000D01*
X94904554Y-76365000D01*
X94906310Y-76365000D01*
X95139699Y-76268327D01*
X95318327Y-76089698D01*
X95415000Y-75856309D01*
X95415000Y-75215750D01*
X95256250Y-75057000D01*
X94107000Y-75057000D01*
X94107000Y-75077000D01*
X93853000Y-75077000D01*
X93853000Y-75057000D01*
X93833000Y-75057000D01*
X93833000Y-74803000D01*
X93853000Y-74803000D01*
X93853000Y-73653750D01*
X94107000Y-73653750D01*
X94107000Y-74803000D01*
X95256250Y-74803000D01*
X95415000Y-74644250D01*
X95415000Y-74099167D01*
X96854838Y-74099167D01*
X96996883Y-74442943D01*
X97259673Y-74706192D01*
X97603201Y-74848838D01*
X97975167Y-74849162D01*
X98318943Y-74707117D01*
X98582192Y-74444327D01*
X98724838Y-74100799D01*
X98725162Y-73728833D01*
X98583117Y-73385057D01*
X98320327Y-73121808D01*
X97976799Y-72979162D01*
X97604833Y-72978838D01*
X97261057Y-73120883D01*
X96997808Y-73383673D01*
X96855162Y-73727201D01*
X96854838Y-74099167D01*
X95415000Y-74099167D01*
X95415000Y-74003691D01*
X95318327Y-73770302D01*
X95139699Y-73591673D01*
X94906310Y-73495000D01*
X94265750Y-73495000D01*
X94107000Y-73653750D01*
X93853000Y-73653750D01*
X93694250Y-73495000D01*
X93053690Y-73495000D01*
X92820301Y-73591673D01*
X92641673Y-73770302D01*
X92545000Y-74003691D01*
X92545000Y-74005761D01*
X92253923Y-73714176D01*
X91726691Y-73495250D01*
X91155813Y-73494752D01*
X90628200Y-73712757D01*
X90224176Y-74116077D01*
X90170138Y-74246215D01*
X90117243Y-74118200D01*
X89713923Y-73714176D01*
X89186691Y-73495250D01*
X88615813Y-73494752D01*
X88088200Y-73712757D01*
X88013827Y-73787000D01*
X80264000Y-73787000D01*
X79826593Y-73874006D01*
X79455777Y-74121777D01*
X77169777Y-76407777D01*
X76922006Y-76778593D01*
X76835000Y-77216000D01*
X76835000Y-81197432D01*
X76641884Y-81390211D01*
X76554350Y-81359255D01*
X75617605Y-82296000D01*
X76554350Y-83232745D01*
X76642439Y-83201593D01*
X76835000Y-83394490D01*
X76835000Y-85852000D01*
X76922006Y-86289407D01*
X77169777Y-86660223D01*
X79044054Y-88534500D01*
X76586080Y-88534500D01*
X76581000Y-88535456D01*
X76581000Y-87630000D01*
X76493994Y-87192593D01*
X76246223Y-86821777D01*
X74041000Y-84616554D01*
X74041000Y-83412350D01*
X74501255Y-83412350D01*
X74593792Y-83674019D01*
X75185398Y-83892188D01*
X75815461Y-83867352D01*
X76282208Y-83674019D01*
X76374745Y-83412350D01*
X75438000Y-82475605D01*
X74501255Y-83412350D01*
X74041000Y-83412350D01*
X74041000Y-83394568D01*
X74234116Y-83201789D01*
X74321650Y-83232745D01*
X75258395Y-82296000D01*
X74321650Y-81359255D01*
X74233561Y-81390407D01*
X74023172Y-81179650D01*
X74501255Y-81179650D01*
X75438000Y-82116395D01*
X76374745Y-81179650D01*
X76282208Y-80917981D01*
X75690602Y-80699812D01*
X75060539Y-80724648D01*
X74593792Y-80917981D01*
X74501255Y-81179650D01*
X74023172Y-81179650D01*
X73797003Y-80953086D01*
X73214659Y-80711276D01*
X72584107Y-80710725D01*
X72001343Y-80951519D01*
X71555086Y-81396997D01*
X71313276Y-81979341D01*
X71312725Y-82609893D01*
X71553519Y-83192657D01*
X71755000Y-83394490D01*
X71755000Y-85090000D01*
X71842006Y-85527407D01*
X72089777Y-85898223D01*
X74295000Y-88103446D01*
X74295000Y-88580894D01*
X74213029Y-88546940D01*
X72622410Y-88546940D01*
X72463660Y-88705690D01*
X72463660Y-90805000D01*
X72483660Y-90805000D01*
X72483660Y-91059000D01*
X72463660Y-91059000D01*
X72463660Y-93158310D01*
X72622410Y-93317060D01*
X73288332Y-93317060D01*
X73226642Y-93342613D01*
X73048013Y-93521241D01*
X72951340Y-93754630D01*
X72951340Y-95345250D01*
X73110090Y-95504000D01*
X75209400Y-95504000D01*
X75209400Y-93404690D01*
X75050650Y-93245940D01*
X74384728Y-93245940D01*
X74446418Y-93220387D01*
X74625047Y-93041759D01*
X74721720Y-92808370D01*
X74721720Y-91217750D01*
X74562972Y-91059002D01*
X74710556Y-91059002D01*
X75391777Y-91740223D01*
X75762593Y-91987994D01*
X75938640Y-92023012D01*
X75938640Y-92682060D01*
X75982918Y-92917377D01*
X76121990Y-93133501D01*
X76286550Y-93245940D01*
X75622150Y-93245940D01*
X75463400Y-93404690D01*
X75463400Y-95504000D01*
X77562710Y-95504000D01*
X77721460Y-95345250D01*
X77721460Y-93754630D01*
X77624787Y-93521241D01*
X77446158Y-93342613D01*
X77414500Y-93329500D01*
X79629000Y-93329500D01*
X79629000Y-94776554D01*
X77721460Y-96684094D01*
X77721460Y-95916750D01*
X77562710Y-95758000D01*
X75463400Y-95758000D01*
X75463400Y-97857310D01*
X75622150Y-98016060D01*
X77212769Y-98016060D01*
X77343000Y-97962116D01*
X77343000Y-98332554D01*
X73948554Y-101727000D01*
X73576161Y-101727000D01*
X73234724Y-101585223D01*
X72723519Y-101584777D01*
X72251057Y-101779995D01*
X71889265Y-102141155D01*
X71693223Y-102613276D01*
X71692777Y-103124481D01*
X71887995Y-103596943D01*
X72249155Y-103958735D01*
X72721276Y-104154777D01*
X73232481Y-104155223D01*
X73576686Y-104013000D01*
X74422000Y-104013000D01*
X74859407Y-103925994D01*
X75230223Y-103678223D01*
X75752696Y-103155750D01*
X76693000Y-103155750D01*
X76693000Y-103646310D01*
X76789673Y-103879699D01*
X76968302Y-104058327D01*
X77201691Y-104155000D01*
X77692250Y-104155000D01*
X77851000Y-103996250D01*
X77851000Y-102997000D01*
X78105000Y-102997000D01*
X78105000Y-103996250D01*
X78263750Y-104155000D01*
X78754309Y-104155000D01*
X78987698Y-104058327D01*
X79166327Y-103879699D01*
X79263000Y-103646310D01*
X79263000Y-103155750D01*
X79104250Y-102997000D01*
X78105000Y-102997000D01*
X77851000Y-102997000D01*
X76851750Y-102997000D01*
X76693000Y-103155750D01*
X75752696Y-103155750D01*
X76693000Y-102215446D01*
X76693000Y-102584250D01*
X76851750Y-102743000D01*
X77851000Y-102743000D01*
X77851000Y-101743750D01*
X78105000Y-101743750D01*
X78105000Y-102743000D01*
X79104250Y-102743000D01*
X79263000Y-102584250D01*
X79263000Y-102093690D01*
X79166327Y-101860301D01*
X78987698Y-101681673D01*
X78754309Y-101585000D01*
X78263750Y-101585000D01*
X78105000Y-101743750D01*
X77851000Y-101743750D01*
X77692250Y-101585000D01*
X77323446Y-101585000D01*
X79294223Y-99614223D01*
X79541994Y-99243407D01*
X79629000Y-98806000D01*
X79629000Y-98009446D01*
X79899553Y-97738893D01*
X79899226Y-98113694D01*
X80147538Y-98714655D01*
X80391000Y-98958542D01*
X80391000Y-105664000D01*
X80478006Y-106101407D01*
X80725777Y-106472223D01*
X84720554Y-110467000D01*
X72709515Y-110467000D01*
X72779229Y-110438195D01*
X73352183Y-109866240D01*
X73662646Y-109118562D01*
X73663282Y-108389167D01*
X79328838Y-108389167D01*
X79470883Y-108732943D01*
X79733673Y-108996192D01*
X80077201Y-109138838D01*
X80449167Y-109139162D01*
X80792943Y-108997117D01*
X81056192Y-108734327D01*
X81198838Y-108390799D01*
X81199162Y-108018833D01*
X81057117Y-107675057D01*
X80794327Y-107411808D01*
X80450799Y-107269162D01*
X80078833Y-107268838D01*
X79735057Y-107410883D01*
X79471808Y-107673673D01*
X79329162Y-108017201D01*
X79328838Y-108389167D01*
X73663282Y-108389167D01*
X73663352Y-108308989D01*
X73354195Y-107560771D01*
X72782240Y-106987817D01*
X72034562Y-106677354D01*
X71224989Y-106676648D01*
X70476771Y-106985805D01*
X69903817Y-107557760D01*
X69821000Y-107757206D01*
X69821000Y-95916750D01*
X72951340Y-95916750D01*
X72951340Y-97507370D01*
X73048013Y-97740759D01*
X73226642Y-97919387D01*
X73460031Y-98016060D01*
X75050650Y-98016060D01*
X75209400Y-97857310D01*
X75209400Y-95758000D01*
X73110090Y-95758000D01*
X72951340Y-95916750D01*
X69821000Y-95916750D01*
X69821000Y-91217750D01*
X69951600Y-91217750D01*
X69951600Y-92808370D01*
X70048273Y-93041759D01*
X70226902Y-93220387D01*
X70460291Y-93317060D01*
X72050910Y-93317060D01*
X72209660Y-93158310D01*
X72209660Y-91059000D01*
X70110350Y-91059000D01*
X69951600Y-91217750D01*
X69821000Y-91217750D01*
X69821000Y-89055630D01*
X69951600Y-89055630D01*
X69951600Y-90646250D01*
X70110350Y-90805000D01*
X72209660Y-90805000D01*
X72209660Y-88705690D01*
X72050910Y-88546940D01*
X70460291Y-88546940D01*
X70226902Y-88643613D01*
X70048273Y-88822241D01*
X69951600Y-89055630D01*
X69821000Y-89055630D01*
X69821000Y-78671167D01*
X70692838Y-78671167D01*
X70834883Y-79014943D01*
X71097673Y-79278192D01*
X71441201Y-79420838D01*
X71813167Y-79421162D01*
X72156943Y-79279117D01*
X72420192Y-79016327D01*
X72562838Y-78672799D01*
X72563162Y-78300833D01*
X72421117Y-77957057D01*
X72158327Y-77693808D01*
X71814799Y-77551162D01*
X71442833Y-77550838D01*
X71099057Y-77692883D01*
X70835808Y-77955673D01*
X70693162Y-78299201D01*
X70692838Y-78671167D01*
X69821000Y-78671167D01*
X69821000Y-73968727D01*
X70219760Y-74368183D01*
X70967438Y-74678646D01*
X71777011Y-74679352D01*
X72525229Y-74370195D01*
X73098183Y-73798240D01*
X73408646Y-73050562D01*
X73409352Y-72240989D01*
X73100195Y-71492771D01*
X73004591Y-71397000D01*
X108673610Y-71397000D01*
X109224585Y-71506596D01*
X109224585Y-71506596D01*
G37*
X109224585Y-71506596D02*
X109630308Y-71777691D01*
X109901404Y-72183416D01*
X110009409Y-72726393D01*
X109836019Y-72307792D01*
X109574350Y-72215255D01*
X108637605Y-73152000D01*
X109574350Y-74088745D01*
X109836019Y-73996208D01*
X110011000Y-73521714D01*
X110011000Y-77810233D01*
X109836019Y-77387792D01*
X109574350Y-77295255D01*
X108637605Y-78232000D01*
X109574350Y-79168745D01*
X109836019Y-79076208D01*
X110011000Y-78601714D01*
X110011000Y-80775730D01*
X109639073Y-80403154D01*
X109038547Y-80153794D01*
X108388306Y-80153226D01*
X107787345Y-80401538D01*
X107416236Y-80772000D01*
X105322841Y-80772000D01*
X104394000Y-79843160D01*
X104394000Y-79457346D01*
X104503186Y-79348350D01*
X107521255Y-79348350D01*
X107613792Y-79610019D01*
X108205398Y-79828188D01*
X108835461Y-79803352D01*
X109302208Y-79610019D01*
X109394745Y-79348350D01*
X108458000Y-78411605D01*
X107521255Y-79348350D01*
X104503186Y-79348350D01*
X104720914Y-79131003D01*
X104962724Y-78548659D01*
X104963221Y-77979398D01*
X106861812Y-77979398D01*
X106886648Y-78609461D01*
X107079981Y-79076208D01*
X107341650Y-79168745D01*
X108278395Y-78232000D01*
X107341650Y-77295255D01*
X107079981Y-77387792D01*
X106861812Y-77979398D01*
X104963221Y-77979398D01*
X104963275Y-77918107D01*
X104722481Y-77335343D01*
X104503172Y-77115650D01*
X107521255Y-77115650D01*
X108458000Y-78052395D01*
X109394745Y-77115650D01*
X109302208Y-76853981D01*
X108710602Y-76635812D01*
X108080539Y-76660648D01*
X107613792Y-76853981D01*
X107521255Y-77115650D01*
X104503172Y-77115650D01*
X104394000Y-77006288D01*
X104394000Y-74377346D01*
X104503186Y-74268350D01*
X107521255Y-74268350D01*
X107613792Y-74530019D01*
X108205398Y-74748188D01*
X108835461Y-74723352D01*
X109302208Y-74530019D01*
X109394745Y-74268350D01*
X108458000Y-73331605D01*
X107521255Y-74268350D01*
X104503186Y-74268350D01*
X104720914Y-74051003D01*
X104962724Y-73468659D01*
X104963221Y-72899398D01*
X106861812Y-72899398D01*
X106886648Y-73529461D01*
X107079981Y-73996208D01*
X107341650Y-74088745D01*
X108278395Y-73152000D01*
X107341650Y-72215255D01*
X107079981Y-72307792D01*
X106861812Y-72899398D01*
X104963221Y-72899398D01*
X104963275Y-72838107D01*
X104722481Y-72255343D01*
X104503172Y-72035650D01*
X107521255Y-72035650D01*
X108458000Y-72972395D01*
X109394745Y-72035650D01*
X109302208Y-71773981D01*
X108710602Y-71555812D01*
X108080539Y-71580648D01*
X107613792Y-71773981D01*
X107521255Y-72035650D01*
X104503172Y-72035650D01*
X104277003Y-71809086D01*
X103694659Y-71567276D01*
X103064107Y-71566725D01*
X102481343Y-71807519D01*
X102035086Y-72252997D01*
X101793276Y-72835341D01*
X101792725Y-73465893D01*
X102033519Y-74048657D01*
X102362000Y-74377712D01*
X102362000Y-77006654D01*
X102152288Y-77216000D01*
X99480841Y-77216000D01*
X99016420Y-76751580D01*
X98686807Y-76531338D01*
X98622300Y-76518507D01*
X98298000Y-76454000D01*
X94993399Y-76454000D01*
X94904554Y-76365000D01*
X94906310Y-76365000D01*
X95139699Y-76268327D01*
X95318327Y-76089698D01*
X95415000Y-75856309D01*
X95415000Y-75215750D01*
X95256250Y-75057000D01*
X94107000Y-75057000D01*
X94107000Y-75077000D01*
X93853000Y-75077000D01*
X93853000Y-75057000D01*
X93833000Y-75057000D01*
X93833000Y-74803000D01*
X93853000Y-74803000D01*
X93853000Y-73653750D01*
X94107000Y-73653750D01*
X94107000Y-74803000D01*
X95256250Y-74803000D01*
X95415000Y-74644250D01*
X95415000Y-74099167D01*
X96854838Y-74099167D01*
X96996883Y-74442943D01*
X97259673Y-74706192D01*
X97603201Y-74848838D01*
X97975167Y-74849162D01*
X98318943Y-74707117D01*
X98582192Y-74444327D01*
X98724838Y-74100799D01*
X98725162Y-73728833D01*
X98583117Y-73385057D01*
X98320327Y-73121808D01*
X97976799Y-72979162D01*
X97604833Y-72978838D01*
X97261057Y-73120883D01*
X96997808Y-73383673D01*
X96855162Y-73727201D01*
X96854838Y-74099167D01*
X95415000Y-74099167D01*
X95415000Y-74003691D01*
X95318327Y-73770302D01*
X95139699Y-73591673D01*
X94906310Y-73495000D01*
X94265750Y-73495000D01*
X94107000Y-73653750D01*
X93853000Y-73653750D01*
X93694250Y-73495000D01*
X93053690Y-73495000D01*
X92820301Y-73591673D01*
X92641673Y-73770302D01*
X92545000Y-74003691D01*
X92545000Y-74005761D01*
X92253923Y-73714176D01*
X91726691Y-73495250D01*
X91155813Y-73494752D01*
X90628200Y-73712757D01*
X90224176Y-74116077D01*
X90170138Y-74246215D01*
X90117243Y-74118200D01*
X89713923Y-73714176D01*
X89186691Y-73495250D01*
X88615813Y-73494752D01*
X88088200Y-73712757D01*
X88013827Y-73787000D01*
X80264000Y-73787000D01*
X79826593Y-73874006D01*
X79455777Y-74121777D01*
X77169777Y-76407777D01*
X76922006Y-76778593D01*
X76835000Y-77216000D01*
X76835000Y-81197432D01*
X76641884Y-81390211D01*
X76554350Y-81359255D01*
X75617605Y-82296000D01*
X76554350Y-83232745D01*
X76642439Y-83201593D01*
X76835000Y-83394490D01*
X76835000Y-85852000D01*
X76922006Y-86289407D01*
X77169777Y-86660223D01*
X79044054Y-88534500D01*
X76586080Y-88534500D01*
X76581000Y-88535456D01*
X76581000Y-87630000D01*
X76493994Y-87192593D01*
X76246223Y-86821777D01*
X74041000Y-84616554D01*
X74041000Y-83412350D01*
X74501255Y-83412350D01*
X74593792Y-83674019D01*
X75185398Y-83892188D01*
X75815461Y-83867352D01*
X76282208Y-83674019D01*
X76374745Y-83412350D01*
X75438000Y-82475605D01*
X74501255Y-83412350D01*
X74041000Y-83412350D01*
X74041000Y-83394568D01*
X74234116Y-83201789D01*
X74321650Y-83232745D01*
X75258395Y-82296000D01*
X74321650Y-81359255D01*
X74233561Y-81390407D01*
X74023172Y-81179650D01*
X74501255Y-81179650D01*
X75438000Y-82116395D01*
X76374745Y-81179650D01*
X76282208Y-80917981D01*
X75690602Y-80699812D01*
X75060539Y-80724648D01*
X74593792Y-80917981D01*
X74501255Y-81179650D01*
X74023172Y-81179650D01*
X73797003Y-80953086D01*
X73214659Y-80711276D01*
X72584107Y-80710725D01*
X72001343Y-80951519D01*
X71555086Y-81396997D01*
X71313276Y-81979341D01*
X71312725Y-82609893D01*
X71553519Y-83192657D01*
X71755000Y-83394490D01*
X71755000Y-85090000D01*
X71842006Y-85527407D01*
X72089777Y-85898223D01*
X74295000Y-88103446D01*
X74295000Y-88580894D01*
X74213029Y-88546940D01*
X72622410Y-88546940D01*
X72463660Y-88705690D01*
X72463660Y-90805000D01*
X72483660Y-90805000D01*
X72483660Y-91059000D01*
X72463660Y-91059000D01*
X72463660Y-93158310D01*
X72622410Y-93317060D01*
X73288332Y-93317060D01*
X73226642Y-93342613D01*
X73048013Y-93521241D01*
X72951340Y-93754630D01*
X72951340Y-95345250D01*
X73110090Y-95504000D01*
X75209400Y-95504000D01*
X75209400Y-93404690D01*
X75050650Y-93245940D01*
X74384728Y-93245940D01*
X74446418Y-93220387D01*
X74625047Y-93041759D01*
X74721720Y-92808370D01*
X74721720Y-91217750D01*
X74562972Y-91059002D01*
X74710556Y-91059002D01*
X75391777Y-91740223D01*
X75762593Y-91987994D01*
X75938640Y-92023012D01*
X75938640Y-92682060D01*
X75982918Y-92917377D01*
X76121990Y-93133501D01*
X76286550Y-93245940D01*
X75622150Y-93245940D01*
X75463400Y-93404690D01*
X75463400Y-95504000D01*
X77562710Y-95504000D01*
X77721460Y-95345250D01*
X77721460Y-93754630D01*
X77624787Y-93521241D01*
X77446158Y-93342613D01*
X77414500Y-93329500D01*
X79629000Y-93329500D01*
X79629000Y-94776554D01*
X77721460Y-96684094D01*
X77721460Y-95916750D01*
X77562710Y-95758000D01*
X75463400Y-95758000D01*
X75463400Y-97857310D01*
X75622150Y-98016060D01*
X77212769Y-98016060D01*
X77343000Y-97962116D01*
X77343000Y-98332554D01*
X73948554Y-101727000D01*
X73576161Y-101727000D01*
X73234724Y-101585223D01*
X72723519Y-101584777D01*
X72251057Y-101779995D01*
X71889265Y-102141155D01*
X71693223Y-102613276D01*
X71692777Y-103124481D01*
X71887995Y-103596943D01*
X72249155Y-103958735D01*
X72721276Y-104154777D01*
X73232481Y-104155223D01*
X73576686Y-104013000D01*
X74422000Y-104013000D01*
X74859407Y-103925994D01*
X75230223Y-103678223D01*
X75752696Y-103155750D01*
X76693000Y-103155750D01*
X76693000Y-103646310D01*
X76789673Y-103879699D01*
X76968302Y-104058327D01*
X77201691Y-104155000D01*
X77692250Y-104155000D01*
X77851000Y-103996250D01*
X77851000Y-102997000D01*
X78105000Y-102997000D01*
X78105000Y-103996250D01*
X78263750Y-104155000D01*
X78754309Y-104155000D01*
X78987698Y-104058327D01*
X79166327Y-103879699D01*
X79263000Y-103646310D01*
X79263000Y-103155750D01*
X79104250Y-102997000D01*
X78105000Y-102997000D01*
X77851000Y-102997000D01*
X76851750Y-102997000D01*
X76693000Y-103155750D01*
X75752696Y-103155750D01*
X76693000Y-102215446D01*
X76693000Y-102584250D01*
X76851750Y-102743000D01*
X77851000Y-102743000D01*
X77851000Y-101743750D01*
X78105000Y-101743750D01*
X78105000Y-102743000D01*
X79104250Y-102743000D01*
X79263000Y-102584250D01*
X79263000Y-102093690D01*
X79166327Y-101860301D01*
X78987698Y-101681673D01*
X78754309Y-101585000D01*
X78263750Y-101585000D01*
X78105000Y-101743750D01*
X77851000Y-101743750D01*
X77692250Y-101585000D01*
X77323446Y-101585000D01*
X79294223Y-99614223D01*
X79541994Y-99243407D01*
X79629000Y-98806000D01*
X79629000Y-98009446D01*
X79899553Y-97738893D01*
X79899226Y-98113694D01*
X80147538Y-98714655D01*
X80391000Y-98958542D01*
X80391000Y-105664000D01*
X80478006Y-106101407D01*
X80725777Y-106472223D01*
X84720554Y-110467000D01*
X72709515Y-110467000D01*
X72779229Y-110438195D01*
X73352183Y-109866240D01*
X73662646Y-109118562D01*
X73663282Y-108389167D01*
X79328838Y-108389167D01*
X79470883Y-108732943D01*
X79733673Y-108996192D01*
X80077201Y-109138838D01*
X80449167Y-109139162D01*
X80792943Y-108997117D01*
X81056192Y-108734327D01*
X81198838Y-108390799D01*
X81199162Y-108018833D01*
X81057117Y-107675057D01*
X80794327Y-107411808D01*
X80450799Y-107269162D01*
X80078833Y-107268838D01*
X79735057Y-107410883D01*
X79471808Y-107673673D01*
X79329162Y-108017201D01*
X79328838Y-108389167D01*
X73663282Y-108389167D01*
X73663352Y-108308989D01*
X73354195Y-107560771D01*
X72782240Y-106987817D01*
X72034562Y-106677354D01*
X71224989Y-106676648D01*
X70476771Y-106985805D01*
X69903817Y-107557760D01*
X69821000Y-107757206D01*
X69821000Y-95916750D01*
X72951340Y-95916750D01*
X72951340Y-97507370D01*
X73048013Y-97740759D01*
X73226642Y-97919387D01*
X73460031Y-98016060D01*
X75050650Y-98016060D01*
X75209400Y-97857310D01*
X75209400Y-95758000D01*
X73110090Y-95758000D01*
X72951340Y-95916750D01*
X69821000Y-95916750D01*
X69821000Y-91217750D01*
X69951600Y-91217750D01*
X69951600Y-92808370D01*
X70048273Y-93041759D01*
X70226902Y-93220387D01*
X70460291Y-93317060D01*
X72050910Y-93317060D01*
X72209660Y-93158310D01*
X72209660Y-91059000D01*
X70110350Y-91059000D01*
X69951600Y-91217750D01*
X69821000Y-91217750D01*
X69821000Y-89055630D01*
X69951600Y-89055630D01*
X69951600Y-90646250D01*
X70110350Y-90805000D01*
X72209660Y-90805000D01*
X72209660Y-88705690D01*
X72050910Y-88546940D01*
X70460291Y-88546940D01*
X70226902Y-88643613D01*
X70048273Y-88822241D01*
X69951600Y-89055630D01*
X69821000Y-89055630D01*
X69821000Y-78671167D01*
X70692838Y-78671167D01*
X70834883Y-79014943D01*
X71097673Y-79278192D01*
X71441201Y-79420838D01*
X71813167Y-79421162D01*
X72156943Y-79279117D01*
X72420192Y-79016327D01*
X72562838Y-78672799D01*
X72563162Y-78300833D01*
X72421117Y-77957057D01*
X72158327Y-77693808D01*
X71814799Y-77551162D01*
X71442833Y-77550838D01*
X71099057Y-77692883D01*
X70835808Y-77955673D01*
X70693162Y-78299201D01*
X70692838Y-78671167D01*
X69821000Y-78671167D01*
X69821000Y-73968727D01*
X70219760Y-74368183D01*
X70967438Y-74678646D01*
X71777011Y-74679352D01*
X72525229Y-74370195D01*
X73098183Y-73798240D01*
X73408646Y-73050562D01*
X73409352Y-72240989D01*
X73100195Y-71492771D01*
X73004591Y-71397000D01*
X108673610Y-71397000D01*
X109224585Y-71506596D01*
G36*
X88086077Y-76145824D02*
X88216215Y-76199862D01*
X88088200Y-76252757D01*
X87684176Y-76656077D01*
X87465250Y-77183309D01*
X87464752Y-77754187D01*
X87682757Y-78281800D01*
X88011000Y-78610616D01*
X88011000Y-80010000D01*
X88078671Y-80350206D01*
X88212002Y-80549750D01*
X88271382Y-80638618D01*
X90303382Y-82670618D01*
X90591794Y-82863329D01*
X90932000Y-82931000D01*
X94373764Y-82931000D01*
X94665238Y-83222474D01*
X94710883Y-83332943D01*
X94973673Y-83596192D01*
X95317201Y-83738838D01*
X95689167Y-83739162D01*
X96032943Y-83597117D01*
X96296192Y-83334327D01*
X96438838Y-82990799D01*
X96438850Y-82977151D01*
X96451167Y-82977162D01*
X96794943Y-82835117D01*
X97058192Y-82572327D01*
X97082935Y-82512740D01*
X97165538Y-82712655D01*
X97624927Y-83172846D01*
X98225453Y-83422206D01*
X98782467Y-83422693D01*
X98595580Y-83609580D01*
X98375338Y-83939193D01*
X98375338Y-83939194D01*
X98298000Y-84328000D01*
X98298000Y-90511159D01*
X97115160Y-91694000D01*
X95205346Y-91694000D01*
X94951529Y-91439739D01*
X95322914Y-91069003D01*
X95564724Y-90486659D01*
X95565275Y-89856107D01*
X95324481Y-89273343D01*
X94951529Y-88899739D01*
X95322914Y-88529003D01*
X95564724Y-87946659D01*
X95565275Y-87316107D01*
X95324481Y-86733343D01*
X94951529Y-86359739D01*
X95322914Y-85989003D01*
X95564724Y-85406659D01*
X95565275Y-84776107D01*
X95324481Y-84193343D01*
X94879003Y-83747086D01*
X94296659Y-83505276D01*
X93666107Y-83504725D01*
X93210448Y-83693000D01*
X89119446Y-83693000D01*
X87382223Y-81955777D01*
X87011407Y-81708006D01*
X86574000Y-81621000D01*
X84164161Y-81621000D01*
X83990765Y-81549000D01*
X84342310Y-81549000D01*
X84575699Y-81452327D01*
X84754327Y-81273698D01*
X84851000Y-81040309D01*
X84851000Y-80549750D01*
X84692250Y-80391000D01*
X83693000Y-80391000D01*
X83693000Y-80411000D01*
X83439000Y-80411000D01*
X83439000Y-80391000D01*
X82439750Y-80391000D01*
X82281000Y-80549750D01*
X82281000Y-81040309D01*
X82377673Y-81273698D01*
X82556301Y-81452327D01*
X82789690Y-81549000D01*
X83141567Y-81549000D01*
X82967314Y-81621000D01*
X81967446Y-81621000D01*
X81834223Y-81487777D01*
X81463407Y-81240006D01*
X81026000Y-81153000D01*
X79121000Y-81153000D01*
X79121000Y-79487691D01*
X82281000Y-79487691D01*
X82281000Y-79978250D01*
X82439750Y-80137000D01*
X83439000Y-80137000D01*
X83439000Y-79137750D01*
X83693000Y-79137750D01*
X83693000Y-80137000D01*
X84692250Y-80137000D01*
X84851000Y-79978250D01*
X84851000Y-79487691D01*
X84754327Y-79254302D01*
X84575699Y-79075673D01*
X84342310Y-78979000D01*
X83851750Y-78979000D01*
X83693000Y-79137750D01*
X83439000Y-79137750D01*
X83280250Y-78979000D01*
X82789690Y-78979000D01*
X82556301Y-79075673D01*
X82377673Y-79254302D01*
X82281000Y-79487691D01*
X79121000Y-79487691D01*
X79121000Y-77689446D01*
X80737446Y-76073000D01*
X88013380Y-76073000D01*
X88086077Y-76145824D01*
X88086077Y-76145824D01*
G37*
X88086077Y-76145824D02*
X88216215Y-76199862D01*
X88088200Y-76252757D01*
X87684176Y-76656077D01*
X87465250Y-77183309D01*
X87464752Y-77754187D01*
X87682757Y-78281800D01*
X88011000Y-78610616D01*
X88011000Y-80010000D01*
X88078671Y-80350206D01*
X88212002Y-80549750D01*
X88271382Y-80638618D01*
X90303382Y-82670618D01*
X90591794Y-82863329D01*
X90932000Y-82931000D01*
X94373764Y-82931000D01*
X94665238Y-83222474D01*
X94710883Y-83332943D01*
X94973673Y-83596192D01*
X95317201Y-83738838D01*
X95689167Y-83739162D01*
X96032943Y-83597117D01*
X96296192Y-83334327D01*
X96438838Y-82990799D01*
X96438850Y-82977151D01*
X96451167Y-82977162D01*
X96794943Y-82835117D01*
X97058192Y-82572327D01*
X97082935Y-82512740D01*
X97165538Y-82712655D01*
X97624927Y-83172846D01*
X98225453Y-83422206D01*
X98782467Y-83422693D01*
X98595580Y-83609580D01*
X98375338Y-83939193D01*
X98375338Y-83939194D01*
X98298000Y-84328000D01*
X98298000Y-90511159D01*
X97115160Y-91694000D01*
X95205346Y-91694000D01*
X94951529Y-91439739D01*
X95322914Y-91069003D01*
X95564724Y-90486659D01*
X95565275Y-89856107D01*
X95324481Y-89273343D01*
X94951529Y-88899739D01*
X95322914Y-88529003D01*
X95564724Y-87946659D01*
X95565275Y-87316107D01*
X95324481Y-86733343D01*
X94951529Y-86359739D01*
X95322914Y-85989003D01*
X95564724Y-85406659D01*
X95565275Y-84776107D01*
X95324481Y-84193343D01*
X94879003Y-83747086D01*
X94296659Y-83505276D01*
X93666107Y-83504725D01*
X93210448Y-83693000D01*
X89119446Y-83693000D01*
X87382223Y-81955777D01*
X87011407Y-81708006D01*
X86574000Y-81621000D01*
X84164161Y-81621000D01*
X83990765Y-81549000D01*
X84342310Y-81549000D01*
X84575699Y-81452327D01*
X84754327Y-81273698D01*
X84851000Y-81040309D01*
X84851000Y-80549750D01*
X84692250Y-80391000D01*
X83693000Y-80391000D01*
X83693000Y-80411000D01*
X83439000Y-80411000D01*
X83439000Y-80391000D01*
X82439750Y-80391000D01*
X82281000Y-80549750D01*
X82281000Y-81040309D01*
X82377673Y-81273698D01*
X82556301Y-81452327D01*
X82789690Y-81549000D01*
X83141567Y-81549000D01*
X82967314Y-81621000D01*
X81967446Y-81621000D01*
X81834223Y-81487777D01*
X81463407Y-81240006D01*
X81026000Y-81153000D01*
X79121000Y-81153000D01*
X79121000Y-79487691D01*
X82281000Y-79487691D01*
X82281000Y-79978250D01*
X82439750Y-80137000D01*
X83439000Y-80137000D01*
X83439000Y-79137750D01*
X83693000Y-79137750D01*
X83693000Y-80137000D01*
X84692250Y-80137000D01*
X84851000Y-79978250D01*
X84851000Y-79487691D01*
X84754327Y-79254302D01*
X84575699Y-79075673D01*
X84342310Y-78979000D01*
X83851750Y-78979000D01*
X83693000Y-79137750D01*
X83439000Y-79137750D01*
X83280250Y-78979000D01*
X82789690Y-78979000D01*
X82556301Y-79075673D01*
X82377673Y-79254302D01*
X82281000Y-79487691D01*
X79121000Y-79487691D01*
X79121000Y-77689446D01*
X80737446Y-76073000D01*
X88013380Y-76073000D01*
X88086077Y-76145824D01*
M02*
