M48
;DRILL file {KiCad 4.0.1-3.201512221401+6198~38~ubuntu15.10.1-stable} date mar 05 ene 2016 12:58:46 CET
;FORMAT={-:-/ absolute / metric / decimal}
FMAT,2
METRIC,TZ
T1C0.400
T2C0.800
T3C0.800
T4C1.000
T5C1.001
T6C1.016
%
G90
G05
M71
T1
X71.628Y-78.486
X80.264Y-108.204
X85.598Y-95.504
X86.106Y-105.156
X95.504Y-82.804
X96.266Y-82.042
X97.282Y-78.486
X97.79Y-73.914
T2
X72.898Y-82.296
X72.978Y-102.87
X75.438Y-82.296
X77.978Y-82.296
X77.978Y-102.87
X81.534Y-97.79
X83.566Y-80.264
X83.566Y-82.764
X83.566Y-86.36
X83.566Y-91.44
X83.82Y-101.6
X86.066Y-86.36
X86.36Y-101.6
X88.9Y-74.93
X88.9Y-77.47
X91.44Y-74.93
X91.44Y-77.47
X91.694Y-97.79
X93.98Y-77.47
X93.98Y-85.09
X93.98Y-87.63
X93.98Y-90.17
X93.98Y-92.71
X93.98Y-95.25
X93.98Y-97.79
X93.98Y-100.33
X101.6Y-85.09
X101.6Y-87.63
X101.6Y-90.17
X101.6Y-92.71
X101.6Y-95.25
X101.6Y-97.79
X101.6Y-100.33
X103.378Y-73.152
X103.378Y-78.232
X108.458Y-73.152
X108.458Y-78.232
T3
X86.066Y-91.44
X89.916Y-86.459
X89.916Y-91.341
T4
X90.424Y-106.426
X95.504Y-106.426
X100.584Y-106.426
T5
X98.552Y-81.788
X108.712Y-81.788
T6
X93.98Y-74.93
X106.68Y-92.202
X106.68Y-94.742
X106.68Y-97.282
X106.68Y-99.822
X106.68Y-102.362
X106.68Y-104.902
T2
X72.337Y-89.962G85X72.337Y-91.902
G05
X75.336Y-94.661G85X75.336Y-96.601
G05
X78.336Y-89.962G85X78.336Y-91.902
G05
T0
M30
