G04 #@! TF.FileFunction,Legend,Top*
%FSLAX46Y46*%
G04 Gerber Fmt 4.6, Leading zero omitted, Abs format (unit mm)*
G04 Created by KiCad (PCBNEW 4.0.1-3.201512221401+6198~38~ubuntu15.10.1-stable) date mar 05 ene 2016 12:58:44 CET*
%MOMM*%
G01*
G04 APERTURE LIST*
%ADD10C,0.100000*%
%ADD11C,0.125000*%
%ADD12C,0.150000*%
%ADD13C,0.002540*%
G04 APERTURE END LIST*
D10*
D11*
X93569286Y-80349286D02*
X93319286Y-79992143D01*
X93140714Y-80349286D02*
X93140714Y-79599286D01*
X93426429Y-79599286D01*
X93497857Y-79635000D01*
X93533572Y-79670714D01*
X93569286Y-79742143D01*
X93569286Y-79849286D01*
X93533572Y-79920714D01*
X93497857Y-79956429D01*
X93426429Y-79992143D01*
X93140714Y-79992143D01*
X93855000Y-80313571D02*
X93962143Y-80349286D01*
X94140714Y-80349286D01*
X94212143Y-80313571D01*
X94247857Y-80277857D01*
X94283572Y-80206429D01*
X94283572Y-80135000D01*
X94247857Y-80063571D01*
X94212143Y-80027857D01*
X94140714Y-79992143D01*
X93997857Y-79956429D01*
X93926429Y-79920714D01*
X93890714Y-79885000D01*
X93855000Y-79813571D01*
X93855000Y-79742143D01*
X93890714Y-79670714D01*
X93926429Y-79635000D01*
X93997857Y-79599286D01*
X94176429Y-79599286D01*
X94283572Y-79635000D01*
X94497858Y-79599286D02*
X94926429Y-79599286D01*
X94712143Y-80349286D02*
X94712143Y-79599286D01*
X90729714Y-80313571D02*
X90836857Y-80349286D01*
X91015428Y-80349286D01*
X91086857Y-80313571D01*
X91122571Y-80277857D01*
X91158286Y-80206429D01*
X91158286Y-80135000D01*
X91122571Y-80063571D01*
X91086857Y-80027857D01*
X91015428Y-79992143D01*
X90872571Y-79956429D01*
X90801143Y-79920714D01*
X90765428Y-79885000D01*
X90729714Y-79813571D01*
X90729714Y-79742143D01*
X90765428Y-79670714D01*
X90801143Y-79635000D01*
X90872571Y-79599286D01*
X91051143Y-79599286D01*
X91158286Y-79635000D01*
X91908286Y-80277857D02*
X91872572Y-80313571D01*
X91765429Y-80349286D01*
X91694000Y-80349286D01*
X91586857Y-80313571D01*
X91515429Y-80242143D01*
X91479714Y-80170714D01*
X91444000Y-80027857D01*
X91444000Y-79920714D01*
X91479714Y-79777857D01*
X91515429Y-79706429D01*
X91586857Y-79635000D01*
X91694000Y-79599286D01*
X91765429Y-79599286D01*
X91872572Y-79635000D01*
X91908286Y-79670714D01*
X92229714Y-80349286D02*
X92229714Y-79599286D01*
X92658286Y-80349286D02*
X92336857Y-79920714D01*
X92658286Y-79599286D02*
X92229714Y-80027857D01*
X87721428Y-80349286D02*
X87721428Y-79599286D01*
X87971428Y-80135000D01*
X88221428Y-79599286D01*
X88221428Y-80349286D01*
X88578571Y-80349286D02*
X88578571Y-79599286D01*
X88900000Y-80313571D02*
X89007143Y-80349286D01*
X89185714Y-80349286D01*
X89257143Y-80313571D01*
X89292857Y-80277857D01*
X89328572Y-80206429D01*
X89328572Y-80135000D01*
X89292857Y-80063571D01*
X89257143Y-80027857D01*
X89185714Y-79992143D01*
X89042857Y-79956429D01*
X88971429Y-79920714D01*
X88935714Y-79885000D01*
X88900000Y-79813571D01*
X88900000Y-79742143D01*
X88935714Y-79670714D01*
X88971429Y-79635000D01*
X89042857Y-79599286D01*
X89221429Y-79599286D01*
X89328572Y-79635000D01*
X89792858Y-79599286D02*
X89935715Y-79599286D01*
X90007143Y-79635000D01*
X90078572Y-79706429D01*
X90114286Y-79849286D01*
X90114286Y-80099286D01*
X90078572Y-80242143D01*
X90007143Y-80313571D01*
X89935715Y-80349286D01*
X89792858Y-80349286D01*
X89721429Y-80313571D01*
X89650000Y-80242143D01*
X89614286Y-80099286D01*
X89614286Y-79849286D01*
X89650000Y-79706429D01*
X89721429Y-79635000D01*
X89792858Y-79599286D01*
X93408572Y-72015000D02*
X93337143Y-71979286D01*
X93230000Y-71979286D01*
X93122857Y-72015000D01*
X93051429Y-72086429D01*
X93015714Y-72157857D01*
X92980000Y-72300714D01*
X92980000Y-72407857D01*
X93015714Y-72550714D01*
X93051429Y-72622143D01*
X93122857Y-72693571D01*
X93230000Y-72729286D01*
X93301429Y-72729286D01*
X93408572Y-72693571D01*
X93444286Y-72657857D01*
X93444286Y-72407857D01*
X93301429Y-72407857D01*
X93765714Y-72729286D02*
X93765714Y-71979286D01*
X94194286Y-72729286D01*
X94194286Y-71979286D01*
X94551428Y-72729286D02*
X94551428Y-71979286D01*
X94730000Y-71979286D01*
X94837143Y-72015000D01*
X94908571Y-72086429D01*
X94944286Y-72157857D01*
X94980000Y-72300714D01*
X94980000Y-72407857D01*
X94944286Y-72550714D01*
X94908571Y-72622143D01*
X94837143Y-72693571D01*
X94730000Y-72729286D01*
X94551428Y-72729286D01*
X90007428Y-72729286D02*
X90007428Y-71979286D01*
X90257428Y-72515000D01*
X90507428Y-71979286D01*
X90507428Y-72729286D01*
X91007429Y-71979286D02*
X91150286Y-71979286D01*
X91221714Y-72015000D01*
X91293143Y-72086429D01*
X91328857Y-72229286D01*
X91328857Y-72479286D01*
X91293143Y-72622143D01*
X91221714Y-72693571D01*
X91150286Y-72729286D01*
X91007429Y-72729286D01*
X90936000Y-72693571D01*
X90864571Y-72622143D01*
X90828857Y-72479286D01*
X90828857Y-72229286D01*
X90864571Y-72086429D01*
X90936000Y-72015000D01*
X91007429Y-71979286D01*
X91614571Y-72693571D02*
X91721714Y-72729286D01*
X91900285Y-72729286D01*
X91971714Y-72693571D01*
X92007428Y-72657857D01*
X92043143Y-72586429D01*
X92043143Y-72515000D01*
X92007428Y-72443571D01*
X91971714Y-72407857D01*
X91900285Y-72372143D01*
X91757428Y-72336429D01*
X91686000Y-72300714D01*
X91650285Y-72265000D01*
X91614571Y-72193571D01*
X91614571Y-72122143D01*
X91650285Y-72050714D01*
X91686000Y-72015000D01*
X91757428Y-71979286D01*
X91936000Y-71979286D01*
X92043143Y-72015000D01*
X92364571Y-72729286D02*
X92364571Y-71979286D01*
X88007144Y-71979286D02*
X88257144Y-72729286D01*
X88507144Y-71979286D01*
X89078572Y-72693571D02*
X89007143Y-72729286D01*
X88864286Y-72729286D01*
X88792858Y-72693571D01*
X88757143Y-72657857D01*
X88721429Y-72586429D01*
X88721429Y-72372143D01*
X88757143Y-72300714D01*
X88792858Y-72265000D01*
X88864286Y-72229286D01*
X89007143Y-72229286D01*
X89078572Y-72265000D01*
X89721429Y-72693571D02*
X89650000Y-72729286D01*
X89507143Y-72729286D01*
X89435715Y-72693571D01*
X89400000Y-72657857D01*
X89364286Y-72586429D01*
X89364286Y-72372143D01*
X89400000Y-72300714D01*
X89435715Y-72265000D01*
X89507143Y-72229286D01*
X89650000Y-72229286D01*
X89721429Y-72265000D01*
X99917334Y-101834190D02*
X100084001Y-102334190D01*
X100250667Y-101834190D01*
X100703048Y-102286571D02*
X100679238Y-102310381D01*
X100607810Y-102334190D01*
X100560191Y-102334190D01*
X100488762Y-102310381D01*
X100441143Y-102262762D01*
X100417334Y-102215143D01*
X100393524Y-102119905D01*
X100393524Y-102048476D01*
X100417334Y-101953238D01*
X100441143Y-101905619D01*
X100488762Y-101858000D01*
X100560191Y-101834190D01*
X100607810Y-101834190D01*
X100679238Y-101858000D01*
X100703048Y-101881810D01*
X101203048Y-102286571D02*
X101179238Y-102310381D01*
X101107810Y-102334190D01*
X101060191Y-102334190D01*
X100988762Y-102310381D01*
X100941143Y-102262762D01*
X100917334Y-102215143D01*
X100893524Y-102119905D01*
X100893524Y-102048476D01*
X100917334Y-101953238D01*
X100941143Y-101905619D01*
X100988762Y-101858000D01*
X101060191Y-101834190D01*
X101107810Y-101834190D01*
X101179238Y-101858000D01*
X101203048Y-101881810D01*
X94587334Y-102334190D02*
X94587334Y-101834190D01*
X94777810Y-101834190D01*
X94825429Y-101858000D01*
X94849238Y-101881810D01*
X94873048Y-101929429D01*
X94873048Y-102000857D01*
X94849238Y-102048476D01*
X94825429Y-102072286D01*
X94777810Y-102096095D01*
X94587334Y-102096095D01*
X95087334Y-102334190D02*
X95087334Y-101834190D01*
X95277810Y-101834190D02*
X95611143Y-102334190D01*
X95611143Y-101834190D02*
X95277810Y-102334190D01*
X95801619Y-102072286D02*
X95968285Y-102072286D01*
X96039714Y-102334190D02*
X95801619Y-102334190D01*
X95801619Y-101834190D01*
X96039714Y-101834190D01*
X96492095Y-102334190D02*
X96254000Y-102334190D01*
X96254000Y-101834190D01*
X90043047Y-101858000D02*
X89995428Y-101834190D01*
X89924000Y-101834190D01*
X89852571Y-101858000D01*
X89804952Y-101905619D01*
X89781143Y-101953238D01*
X89757333Y-102048476D01*
X89757333Y-102119905D01*
X89781143Y-102215143D01*
X89804952Y-102262762D01*
X89852571Y-102310381D01*
X89924000Y-102334190D01*
X89971619Y-102334190D01*
X90043047Y-102310381D01*
X90066857Y-102286571D01*
X90066857Y-102119905D01*
X89971619Y-102119905D01*
X90281143Y-102334190D02*
X90281143Y-101834190D01*
X90566857Y-102334190D01*
X90566857Y-101834190D01*
X90804953Y-102334190D02*
X90804953Y-101834190D01*
X90924000Y-101834190D01*
X90995429Y-101858000D01*
X91043048Y-101905619D01*
X91066857Y-101953238D01*
X91090667Y-102048476D01*
X91090667Y-102119905D01*
X91066857Y-102215143D01*
X91043048Y-102262762D01*
X90995429Y-102310381D01*
X90924000Y-102334190D01*
X90804953Y-102334190D01*
D12*
X92710000Y-73660000D02*
X87630000Y-73660000D01*
X95530000Y-73380000D02*
X95530000Y-74930000D01*
X95250000Y-76200000D02*
X92710000Y-76200000D01*
X92710000Y-76200000D02*
X92710000Y-73660000D01*
X87630000Y-73660000D02*
X87630000Y-78740000D01*
X87630000Y-78740000D02*
X92710000Y-78740000D01*
X95530000Y-73380000D02*
X93980000Y-73380000D01*
X95250000Y-78740000D02*
X95250000Y-76200000D01*
X92710000Y-78740000D02*
X95250000Y-78740000D01*
X75403000Y-107869000D02*
X75403000Y-97871000D01*
X75263000Y-107865000D02*
X75263000Y-97875000D01*
X75123000Y-107857000D02*
X75123000Y-97883000D01*
X74983000Y-107845000D02*
X74983000Y-97895000D01*
X74843000Y-107830000D02*
X74843000Y-97910000D01*
X74703000Y-107810000D02*
X74703000Y-97930000D01*
X74563000Y-107786000D02*
X74563000Y-97954000D01*
X74423000Y-107757000D02*
X74423000Y-97983000D01*
X74283000Y-107725000D02*
X74283000Y-98015000D01*
X74143000Y-107688000D02*
X74143000Y-98052000D01*
X74003000Y-107647000D02*
X74003000Y-98093000D01*
X73863000Y-107602000D02*
X73863000Y-103336000D01*
X73863000Y-102404000D02*
X73863000Y-98138000D01*
X73723000Y-107552000D02*
X73723000Y-103537000D01*
X73723000Y-102203000D02*
X73723000Y-98188000D01*
X73583000Y-107497000D02*
X73583000Y-103666000D01*
X73583000Y-102074000D02*
X73583000Y-98243000D01*
X73443000Y-107437000D02*
X73443000Y-103755000D01*
X73443000Y-101985000D02*
X73443000Y-98303000D01*
X73303000Y-107372000D02*
X73303000Y-103816000D01*
X73303000Y-101924000D02*
X73303000Y-98368000D01*
X73163000Y-107302000D02*
X73163000Y-103853000D01*
X73163000Y-101887000D02*
X73163000Y-98438000D01*
X73023000Y-107226000D02*
X73023000Y-103869000D01*
X73023000Y-101871000D02*
X73023000Y-98514000D01*
X72883000Y-107144000D02*
X72883000Y-103865000D01*
X72883000Y-101875000D02*
X72883000Y-98596000D01*
X72743000Y-107056000D02*
X72743000Y-103842000D01*
X72743000Y-101898000D02*
X72743000Y-98684000D01*
X72603000Y-106961000D02*
X72603000Y-103797000D01*
X72603000Y-101943000D02*
X72603000Y-98779000D01*
X72463000Y-106859000D02*
X72463000Y-103727000D01*
X72463000Y-102013000D02*
X72463000Y-98881000D01*
X72323000Y-106749000D02*
X72323000Y-103626000D01*
X72323000Y-102114000D02*
X72323000Y-98991000D01*
X72183000Y-106631000D02*
X72183000Y-103477000D01*
X72183000Y-102263000D02*
X72183000Y-99109000D01*
X72043000Y-106503000D02*
X72043000Y-103225000D01*
X72043000Y-102515000D02*
X72043000Y-99237000D01*
X71903000Y-106366000D02*
X71903000Y-99374000D01*
X71763000Y-106216000D02*
X71763000Y-99524000D01*
X71623000Y-106054000D02*
X71623000Y-99686000D01*
X71483000Y-105877000D02*
X71483000Y-99863000D01*
X71343000Y-105681000D02*
X71343000Y-100059000D01*
X71203000Y-105463000D02*
X71203000Y-100277000D01*
X71063000Y-105217000D02*
X71063000Y-100523000D01*
X70923000Y-104932000D02*
X70923000Y-100808000D01*
X70783000Y-104590000D02*
X70783000Y-101150000D01*
X70643000Y-104144000D02*
X70643000Y-101596000D01*
X70503000Y-103369000D02*
X70503000Y-102371000D01*
X73978000Y-102870000D02*
G75*
G03X73978000Y-102870000I-1000000J0D01*
G01*
X80515500Y-102870000D02*
G75*
G03X80515500Y-102870000I-5037500J0D01*
G01*
X70866000Y-84074000D02*
X80264000Y-84074000D01*
X70866000Y-80772000D02*
X70866000Y-84074000D01*
X70866000Y-80772000D02*
X80264000Y-80772000D01*
X80264000Y-80772000D02*
X80264000Y-84074000D01*
X79248000Y-86360000D02*
X79248000Y-95504000D01*
X70104000Y-95504000D02*
X70104000Y-86360000D01*
X70104000Y-86360000D02*
X79248000Y-86360000D01*
X70104000Y-95504000D02*
X79248000Y-95504000D01*
X83316000Y-90190000D02*
X86316000Y-90190000D01*
X86316000Y-92690000D02*
X83316000Y-92690000D01*
X83316000Y-85110000D02*
X86316000Y-85110000D01*
X86316000Y-87610000D02*
X83316000Y-87610000D01*
X86065000Y-81589000D02*
X81067000Y-81589000D01*
X86057000Y-81729000D02*
X81075000Y-81729000D01*
X86041000Y-81869000D02*
X83661000Y-81869000D01*
X83471000Y-81869000D02*
X81091000Y-81869000D01*
X86017000Y-82009000D02*
X84056000Y-82009000D01*
X83076000Y-82009000D02*
X81115000Y-82009000D01*
X85984000Y-82149000D02*
X84223000Y-82149000D01*
X82909000Y-82149000D02*
X81148000Y-82149000D01*
X85943000Y-82289000D02*
X84330000Y-82289000D01*
X82802000Y-82289000D02*
X81189000Y-82289000D01*
X85893000Y-82429000D02*
X84401000Y-82429000D01*
X82731000Y-82429000D02*
X81239000Y-82429000D01*
X85832000Y-82569000D02*
X84445000Y-82569000D01*
X82687000Y-82569000D02*
X81300000Y-82569000D01*
X85762000Y-82709000D02*
X84464000Y-82709000D01*
X82668000Y-82709000D02*
X81370000Y-82709000D01*
X85680000Y-82849000D02*
X84462000Y-82849000D01*
X82670000Y-82849000D02*
X81452000Y-82849000D01*
X85585000Y-82989000D02*
X84437000Y-82989000D01*
X82695000Y-82989000D02*
X81547000Y-82989000D01*
X85474000Y-83129000D02*
X84389000Y-83129000D01*
X82743000Y-83129000D02*
X81658000Y-83129000D01*
X85346000Y-83269000D02*
X84311000Y-83269000D01*
X82821000Y-83269000D02*
X81786000Y-83269000D01*
X85197000Y-83409000D02*
X84194000Y-83409000D01*
X82938000Y-83409000D02*
X81935000Y-83409000D01*
X85018000Y-83549000D02*
X84006000Y-83549000D01*
X83126000Y-83549000D02*
X82114000Y-83549000D01*
X84799000Y-83689000D02*
X82333000Y-83689000D01*
X84510000Y-83829000D02*
X82622000Y-83829000D01*
X84038000Y-83969000D02*
X83094000Y-83969000D01*
X84466000Y-82764000D02*
G75*
G03X84466000Y-82764000I-900000J0D01*
G01*
X86103500Y-81514000D02*
G75*
G03X86103500Y-81514000I-2537500J0D01*
G01*
X96117210Y-84582000D02*
G75*
G03X96117210Y-84582000I-359210J0D01*
G01*
X95250000Y-84074000D02*
X95250000Y-101346000D01*
X95250000Y-101346000D02*
X100330000Y-101346000D01*
X95250000Y-84074000D02*
X100330000Y-84074000D01*
X100330000Y-84074000D02*
X100330000Y-101346000D01*
X87884000Y-110236000D02*
X87884000Y-102616000D01*
X103124000Y-110236000D02*
X103124000Y-102616000D01*
X87884000Y-108966000D02*
X103124000Y-108966000D01*
X87884000Y-102616000D02*
X103124000Y-102616000D01*
X87884000Y-110236000D02*
X103124000Y-110236000D01*
X107950000Y-93472000D02*
X107950000Y-106172000D01*
X107950000Y-106172000D02*
X105410000Y-106172000D01*
X105410000Y-106172000D02*
X105410000Y-93472000D01*
X108230000Y-90652000D02*
X108230000Y-92202000D01*
X107950000Y-93472000D02*
X105410000Y-93472000D01*
X105130000Y-92202000D02*
X105130000Y-90652000D01*
X105130000Y-90652000D02*
X108230000Y-90652000D01*
X90916760Y-93599000D02*
X90515440Y-93799660D01*
X90515440Y-93799660D02*
X89916000Y-93901260D01*
X89916000Y-93901260D02*
X89415620Y-93799660D01*
X89415620Y-93799660D02*
X88717120Y-93400880D01*
X88717120Y-93400880D02*
X88315800Y-92798900D01*
X88315800Y-92798900D02*
X88115140Y-92199460D01*
X88115140Y-92199460D02*
X88115140Y-85600540D01*
X88115140Y-85600540D02*
X88315800Y-84899500D01*
X88315800Y-84899500D02*
X88615520Y-84500720D01*
X88615520Y-84500720D02*
X89115900Y-84099400D01*
X89115900Y-84099400D02*
X89715340Y-83898740D01*
X89715340Y-83898740D02*
X90215720Y-83898740D01*
X90215720Y-83898740D02*
X90716100Y-84099400D01*
X90716100Y-84099400D02*
X91315540Y-84599780D01*
X91315540Y-84599780D02*
X91615260Y-85100160D01*
X91615260Y-85100160D02*
X91716860Y-85600540D01*
X91716860Y-85699600D02*
X91716860Y-92301060D01*
X91716860Y-92301060D02*
X91615260Y-92699840D01*
X91615260Y-92699840D02*
X91315540Y-93200220D01*
X91315540Y-93200220D02*
X90815160Y-93700600D01*
X92245180Y-85709760D02*
X92196920Y-85250020D01*
X92196920Y-85250020D02*
X92085160Y-84851240D01*
X92085160Y-84851240D02*
X91866720Y-84419440D01*
X91866720Y-84419440D02*
X91635580Y-84129880D01*
X91635580Y-84129880D02*
X91285060Y-83799680D01*
X91285060Y-83799680D02*
X90746580Y-83510120D01*
X90746580Y-83510120D02*
X90147140Y-83380580D01*
X90147140Y-83380580D02*
X89636600Y-83380580D01*
X89636600Y-83380580D02*
X88935560Y-83550760D01*
X88935560Y-83550760D02*
X88346280Y-83949540D01*
X88346280Y-83949540D02*
X87975440Y-84409280D01*
X87975440Y-84409280D02*
X87767160Y-84830920D01*
X87767160Y-84830920D02*
X87607140Y-85280500D01*
X87607140Y-85280500D02*
X87576660Y-85719920D01*
X87795100Y-93060520D02*
X88016080Y-93438980D01*
X88016080Y-93438980D02*
X88295480Y-93759020D01*
X88295480Y-93759020D02*
X88625680Y-94010480D01*
X88625680Y-94010480D02*
X89176860Y-94310200D01*
X89176860Y-94310200D02*
X89646760Y-94419420D01*
X89646760Y-94419420D02*
X90106500Y-94439740D01*
X90106500Y-94439740D02*
X90566240Y-94350840D01*
X90566240Y-94350840D02*
X91015820Y-94160340D01*
X91015820Y-94160340D02*
X91485720Y-93799660D01*
X91485720Y-93799660D02*
X91805760Y-93449140D01*
X91805760Y-93449140D02*
X92036900Y-93060520D01*
X92036900Y-93060520D02*
X92176600Y-92631260D01*
X92176600Y-92631260D02*
X92245180Y-92189300D01*
X87586820Y-85699600D02*
X87586820Y-92151200D01*
X87586820Y-92151200D02*
X87624920Y-92570300D01*
X87624920Y-92570300D02*
X87795100Y-93060520D01*
X92245180Y-85699600D02*
X92245180Y-92151200D01*
X106172000Y-83058000D02*
X101092000Y-83058000D01*
X101092000Y-83058000D02*
X101092000Y-80518000D01*
X101092000Y-80518000D02*
X106172000Y-80518000D01*
X106172000Y-80518000D02*
X106172000Y-83058000D01*
X106172000Y-81788000D02*
X107442000Y-81788000D01*
X101092000Y-81788000D02*
X99822000Y-81788000D01*
X84074000Y-96520000D02*
X89154000Y-96520000D01*
X89154000Y-96520000D02*
X89154000Y-99060000D01*
X89154000Y-99060000D02*
X84074000Y-99060000D01*
X84074000Y-99060000D02*
X84074000Y-96520000D01*
X84074000Y-97790000D02*
X82804000Y-97790000D01*
X89154000Y-97790000D02*
X90424000Y-97790000D01*
X84582000Y-101854000D02*
X84582000Y-101346000D01*
X84582000Y-101346000D02*
X85598000Y-101346000D01*
X85598000Y-101346000D02*
X85598000Y-100838000D01*
X85598000Y-100838000D02*
X84582000Y-100838000D01*
X84582000Y-100838000D02*
X84582000Y-100330000D01*
X84582000Y-100330000D02*
X85598000Y-100330000D01*
X85598000Y-100330000D02*
X86360000Y-100330000D01*
X85598000Y-102108000D02*
X85598000Y-102362000D01*
X85598000Y-102362000D02*
X84582000Y-102362000D01*
X84582000Y-102362000D02*
X84582000Y-102870000D01*
X84582000Y-102870000D02*
X86360000Y-102870000D01*
X85598000Y-102108000D02*
X85598000Y-101854000D01*
X85598000Y-101854000D02*
X84582000Y-101854000D01*
X86886051Y-101600000D02*
G75*
G03X86886051Y-101600000I-1796051J0D01*
G01*
D13*
G36*
X105420160Y-88859360D02*
X105445560Y-88844120D01*
X105503980Y-88808560D01*
X105587800Y-88752680D01*
X105686860Y-88686640D01*
X105785920Y-88620600D01*
X105867200Y-88567260D01*
X105923080Y-88529160D01*
X105948480Y-88516460D01*
X105961180Y-88521540D01*
X106006900Y-88544400D01*
X106075480Y-88579960D01*
X106116120Y-88600280D01*
X106177080Y-88625680D01*
X106210100Y-88633300D01*
X106215180Y-88623140D01*
X106238040Y-88574880D01*
X106273600Y-88493600D01*
X106319320Y-88384380D01*
X106375200Y-88257380D01*
X106431080Y-88122760D01*
X106489500Y-87983060D01*
X106545380Y-87848440D01*
X106593640Y-87729060D01*
X106634280Y-87632540D01*
X106659680Y-87563960D01*
X106669840Y-87536020D01*
X106667300Y-87528400D01*
X106634280Y-87497920D01*
X106580940Y-87457280D01*
X106461560Y-87360760D01*
X106344720Y-87215980D01*
X106273600Y-87050880D01*
X106250740Y-86865460D01*
X106271060Y-86695280D01*
X106337100Y-86532720D01*
X106451400Y-86385400D01*
X106591100Y-86276180D01*
X106753660Y-86207600D01*
X106934000Y-86184740D01*
X107106720Y-86205060D01*
X107274360Y-86271100D01*
X107421680Y-86382860D01*
X107485180Y-86453980D01*
X107571540Y-86603840D01*
X107619800Y-86761320D01*
X107624880Y-86801960D01*
X107617260Y-86977220D01*
X107566460Y-87147400D01*
X107472480Y-87297260D01*
X107342940Y-87421720D01*
X107327700Y-87431880D01*
X107269280Y-87477600D01*
X107228640Y-87508080D01*
X107198160Y-87533480D01*
X107421680Y-88071960D01*
X107457240Y-88155780D01*
X107518200Y-88303100D01*
X107571540Y-88430100D01*
X107614720Y-88531700D01*
X107645200Y-88597740D01*
X107657900Y-88625680D01*
X107657900Y-88628220D01*
X107678220Y-88630760D01*
X107718860Y-88615520D01*
X107795060Y-88579960D01*
X107843320Y-88554560D01*
X107901740Y-88526620D01*
X107927140Y-88516460D01*
X107950000Y-88529160D01*
X108003340Y-88564720D01*
X108084620Y-88618060D01*
X108181140Y-88681560D01*
X108272580Y-88745060D01*
X108356400Y-88800940D01*
X108417360Y-88839040D01*
X108447840Y-88856820D01*
X108452920Y-88856820D01*
X108478320Y-88841580D01*
X108526580Y-88800940D01*
X108600240Y-88732360D01*
X108704380Y-88628220D01*
X108719620Y-88612980D01*
X108805980Y-88526620D01*
X108874560Y-88452960D01*
X108920280Y-88402160D01*
X108938060Y-88379300D01*
X108938060Y-88379300D01*
X108922820Y-88348820D01*
X108884720Y-88287860D01*
X108828840Y-88201500D01*
X108760260Y-88102440D01*
X108582460Y-87843360D01*
X108678980Y-87599520D01*
X108709460Y-87523320D01*
X108747560Y-87434420D01*
X108775500Y-87368380D01*
X108790740Y-87340440D01*
X108816140Y-87330280D01*
X108884720Y-87315040D01*
X108981240Y-87294720D01*
X109095540Y-87274400D01*
X109207300Y-87254080D01*
X109306360Y-87233760D01*
X109377480Y-87221060D01*
X109410500Y-87213440D01*
X109418120Y-87208360D01*
X109425740Y-87193120D01*
X109428280Y-87160100D01*
X109430820Y-87099140D01*
X109433360Y-87005160D01*
X109433360Y-86865460D01*
X109433360Y-86850220D01*
X109430820Y-86720680D01*
X109428280Y-86614000D01*
X109425740Y-86547960D01*
X109420660Y-86520020D01*
X109420660Y-86520020D01*
X109390180Y-86512400D01*
X109319060Y-86497160D01*
X109220000Y-86479380D01*
X109100620Y-86456520D01*
X109093000Y-86453980D01*
X108976160Y-86431120D01*
X108877100Y-86410800D01*
X108805980Y-86395560D01*
X108778040Y-86385400D01*
X108770420Y-86377780D01*
X108747560Y-86332060D01*
X108714540Y-86258400D01*
X108673900Y-86169500D01*
X108635800Y-86075520D01*
X108602780Y-85991700D01*
X108579920Y-85930740D01*
X108572300Y-85902800D01*
X108574840Y-85900260D01*
X108592620Y-85872320D01*
X108633260Y-85811360D01*
X108689140Y-85727540D01*
X108757720Y-85625940D01*
X108762800Y-85618320D01*
X108831380Y-85519260D01*
X108887260Y-85432900D01*
X108922820Y-85374480D01*
X108938060Y-85346540D01*
X108938060Y-85344000D01*
X108915200Y-85313520D01*
X108864400Y-85257640D01*
X108790740Y-85181440D01*
X108704380Y-85092540D01*
X108676440Y-85067140D01*
X108577380Y-84970620D01*
X108511340Y-84909660D01*
X108468160Y-84876640D01*
X108447840Y-84869020D01*
X108447840Y-84869020D01*
X108417360Y-84886800D01*
X108353860Y-84927440D01*
X108270040Y-84985860D01*
X108168440Y-85054440D01*
X108160820Y-85059520D01*
X108061760Y-85128100D01*
X107977940Y-85183980D01*
X107919520Y-85224620D01*
X107891580Y-85239860D01*
X107889040Y-85239860D01*
X107848400Y-85227160D01*
X107777280Y-85201760D01*
X107688380Y-85168740D01*
X107596940Y-85130640D01*
X107513120Y-85095080D01*
X107449620Y-85067140D01*
X107419140Y-85049360D01*
X107419140Y-85049360D01*
X107408980Y-85013800D01*
X107391200Y-84937600D01*
X107370880Y-84836000D01*
X107345480Y-84714080D01*
X107342940Y-84693760D01*
X107320080Y-84574380D01*
X107302300Y-84475320D01*
X107287060Y-84406740D01*
X107279440Y-84378800D01*
X107264200Y-84376260D01*
X107205780Y-84371180D01*
X107116880Y-84368640D01*
X107007660Y-84368640D01*
X106895900Y-84368640D01*
X106786680Y-84371180D01*
X106692700Y-84373720D01*
X106624120Y-84378800D01*
X106596180Y-84383880D01*
X106596180Y-84386420D01*
X106586020Y-84424520D01*
X106568240Y-84498180D01*
X106547920Y-84602320D01*
X106525060Y-84724240D01*
X106519980Y-84747100D01*
X106497120Y-84863940D01*
X106476800Y-84963000D01*
X106464100Y-85029040D01*
X106456480Y-85056980D01*
X106443780Y-85062060D01*
X106395520Y-85082380D01*
X106316780Y-85115400D01*
X106217720Y-85156040D01*
X105989120Y-85247480D01*
X105707180Y-85056980D01*
X105681780Y-85039200D01*
X105580180Y-84970620D01*
X105498900Y-84914740D01*
X105440480Y-84876640D01*
X105417620Y-84863940D01*
X105415080Y-84863940D01*
X105387140Y-84889340D01*
X105331260Y-84942680D01*
X105255060Y-85016340D01*
X105166160Y-85102700D01*
X105102660Y-85168740D01*
X105023920Y-85247480D01*
X104975660Y-85300820D01*
X104947720Y-85333840D01*
X104940100Y-85354160D01*
X104942640Y-85369400D01*
X104960420Y-85397340D01*
X105001060Y-85458300D01*
X105059480Y-85544660D01*
X105128060Y-85643720D01*
X105183940Y-85727540D01*
X105244900Y-85821520D01*
X105283000Y-85887560D01*
X105298240Y-85920580D01*
X105293160Y-85933280D01*
X105275380Y-85989160D01*
X105239820Y-86072980D01*
X105199180Y-86172040D01*
X105100120Y-86393020D01*
X104955340Y-86420960D01*
X104866440Y-86438740D01*
X104744520Y-86461600D01*
X104625140Y-86484460D01*
X104442260Y-86520020D01*
X104434640Y-87195660D01*
X104462580Y-87208360D01*
X104490520Y-87215980D01*
X104559100Y-87231220D01*
X104655620Y-87251540D01*
X104772460Y-87271860D01*
X104868980Y-87289640D01*
X104968040Y-87309960D01*
X105039160Y-87322660D01*
X105069640Y-87330280D01*
X105079800Y-87340440D01*
X105102660Y-87388700D01*
X105138220Y-87464900D01*
X105178860Y-87556340D01*
X105216960Y-87650320D01*
X105252520Y-87739220D01*
X105275380Y-87805260D01*
X105285540Y-87838280D01*
X105272840Y-87866220D01*
X105234740Y-87924640D01*
X105181400Y-88005920D01*
X105112820Y-88104980D01*
X105046780Y-88201500D01*
X104988360Y-88285320D01*
X104950260Y-88346280D01*
X104932480Y-88374220D01*
X104942640Y-88392000D01*
X104980740Y-88440260D01*
X105054400Y-88516460D01*
X105166160Y-88625680D01*
X105183940Y-88643460D01*
X105270300Y-88727280D01*
X105343960Y-88795860D01*
X105397300Y-88841580D01*
X105420160Y-88859360D01*
X105420160Y-88859360D01*
G37*
X105420160Y-88859360D02*
X105445560Y-88844120D01*
X105503980Y-88808560D01*
X105587800Y-88752680D01*
X105686860Y-88686640D01*
X105785920Y-88620600D01*
X105867200Y-88567260D01*
X105923080Y-88529160D01*
X105948480Y-88516460D01*
X105961180Y-88521540D01*
X106006900Y-88544400D01*
X106075480Y-88579960D01*
X106116120Y-88600280D01*
X106177080Y-88625680D01*
X106210100Y-88633300D01*
X106215180Y-88623140D01*
X106238040Y-88574880D01*
X106273600Y-88493600D01*
X106319320Y-88384380D01*
X106375200Y-88257380D01*
X106431080Y-88122760D01*
X106489500Y-87983060D01*
X106545380Y-87848440D01*
X106593640Y-87729060D01*
X106634280Y-87632540D01*
X106659680Y-87563960D01*
X106669840Y-87536020D01*
X106667300Y-87528400D01*
X106634280Y-87497920D01*
X106580940Y-87457280D01*
X106461560Y-87360760D01*
X106344720Y-87215980D01*
X106273600Y-87050880D01*
X106250740Y-86865460D01*
X106271060Y-86695280D01*
X106337100Y-86532720D01*
X106451400Y-86385400D01*
X106591100Y-86276180D01*
X106753660Y-86207600D01*
X106934000Y-86184740D01*
X107106720Y-86205060D01*
X107274360Y-86271100D01*
X107421680Y-86382860D01*
X107485180Y-86453980D01*
X107571540Y-86603840D01*
X107619800Y-86761320D01*
X107624880Y-86801960D01*
X107617260Y-86977220D01*
X107566460Y-87147400D01*
X107472480Y-87297260D01*
X107342940Y-87421720D01*
X107327700Y-87431880D01*
X107269280Y-87477600D01*
X107228640Y-87508080D01*
X107198160Y-87533480D01*
X107421680Y-88071960D01*
X107457240Y-88155780D01*
X107518200Y-88303100D01*
X107571540Y-88430100D01*
X107614720Y-88531700D01*
X107645200Y-88597740D01*
X107657900Y-88625680D01*
X107657900Y-88628220D01*
X107678220Y-88630760D01*
X107718860Y-88615520D01*
X107795060Y-88579960D01*
X107843320Y-88554560D01*
X107901740Y-88526620D01*
X107927140Y-88516460D01*
X107950000Y-88529160D01*
X108003340Y-88564720D01*
X108084620Y-88618060D01*
X108181140Y-88681560D01*
X108272580Y-88745060D01*
X108356400Y-88800940D01*
X108417360Y-88839040D01*
X108447840Y-88856820D01*
X108452920Y-88856820D01*
X108478320Y-88841580D01*
X108526580Y-88800940D01*
X108600240Y-88732360D01*
X108704380Y-88628220D01*
X108719620Y-88612980D01*
X108805980Y-88526620D01*
X108874560Y-88452960D01*
X108920280Y-88402160D01*
X108938060Y-88379300D01*
X108938060Y-88379300D01*
X108922820Y-88348820D01*
X108884720Y-88287860D01*
X108828840Y-88201500D01*
X108760260Y-88102440D01*
X108582460Y-87843360D01*
X108678980Y-87599520D01*
X108709460Y-87523320D01*
X108747560Y-87434420D01*
X108775500Y-87368380D01*
X108790740Y-87340440D01*
X108816140Y-87330280D01*
X108884720Y-87315040D01*
X108981240Y-87294720D01*
X109095540Y-87274400D01*
X109207300Y-87254080D01*
X109306360Y-87233760D01*
X109377480Y-87221060D01*
X109410500Y-87213440D01*
X109418120Y-87208360D01*
X109425740Y-87193120D01*
X109428280Y-87160100D01*
X109430820Y-87099140D01*
X109433360Y-87005160D01*
X109433360Y-86865460D01*
X109433360Y-86850220D01*
X109430820Y-86720680D01*
X109428280Y-86614000D01*
X109425740Y-86547960D01*
X109420660Y-86520020D01*
X109420660Y-86520020D01*
X109390180Y-86512400D01*
X109319060Y-86497160D01*
X109220000Y-86479380D01*
X109100620Y-86456520D01*
X109093000Y-86453980D01*
X108976160Y-86431120D01*
X108877100Y-86410800D01*
X108805980Y-86395560D01*
X108778040Y-86385400D01*
X108770420Y-86377780D01*
X108747560Y-86332060D01*
X108714540Y-86258400D01*
X108673900Y-86169500D01*
X108635800Y-86075520D01*
X108602780Y-85991700D01*
X108579920Y-85930740D01*
X108572300Y-85902800D01*
X108574840Y-85900260D01*
X108592620Y-85872320D01*
X108633260Y-85811360D01*
X108689140Y-85727540D01*
X108757720Y-85625940D01*
X108762800Y-85618320D01*
X108831380Y-85519260D01*
X108887260Y-85432900D01*
X108922820Y-85374480D01*
X108938060Y-85346540D01*
X108938060Y-85344000D01*
X108915200Y-85313520D01*
X108864400Y-85257640D01*
X108790740Y-85181440D01*
X108704380Y-85092540D01*
X108676440Y-85067140D01*
X108577380Y-84970620D01*
X108511340Y-84909660D01*
X108468160Y-84876640D01*
X108447840Y-84869020D01*
X108447840Y-84869020D01*
X108417360Y-84886800D01*
X108353860Y-84927440D01*
X108270040Y-84985860D01*
X108168440Y-85054440D01*
X108160820Y-85059520D01*
X108061760Y-85128100D01*
X107977940Y-85183980D01*
X107919520Y-85224620D01*
X107891580Y-85239860D01*
X107889040Y-85239860D01*
X107848400Y-85227160D01*
X107777280Y-85201760D01*
X107688380Y-85168740D01*
X107596940Y-85130640D01*
X107513120Y-85095080D01*
X107449620Y-85067140D01*
X107419140Y-85049360D01*
X107419140Y-85049360D01*
X107408980Y-85013800D01*
X107391200Y-84937600D01*
X107370880Y-84836000D01*
X107345480Y-84714080D01*
X107342940Y-84693760D01*
X107320080Y-84574380D01*
X107302300Y-84475320D01*
X107287060Y-84406740D01*
X107279440Y-84378800D01*
X107264200Y-84376260D01*
X107205780Y-84371180D01*
X107116880Y-84368640D01*
X107007660Y-84368640D01*
X106895900Y-84368640D01*
X106786680Y-84371180D01*
X106692700Y-84373720D01*
X106624120Y-84378800D01*
X106596180Y-84383880D01*
X106596180Y-84386420D01*
X106586020Y-84424520D01*
X106568240Y-84498180D01*
X106547920Y-84602320D01*
X106525060Y-84724240D01*
X106519980Y-84747100D01*
X106497120Y-84863940D01*
X106476800Y-84963000D01*
X106464100Y-85029040D01*
X106456480Y-85056980D01*
X106443780Y-85062060D01*
X106395520Y-85082380D01*
X106316780Y-85115400D01*
X106217720Y-85156040D01*
X105989120Y-85247480D01*
X105707180Y-85056980D01*
X105681780Y-85039200D01*
X105580180Y-84970620D01*
X105498900Y-84914740D01*
X105440480Y-84876640D01*
X105417620Y-84863940D01*
X105415080Y-84863940D01*
X105387140Y-84889340D01*
X105331260Y-84942680D01*
X105255060Y-85016340D01*
X105166160Y-85102700D01*
X105102660Y-85168740D01*
X105023920Y-85247480D01*
X104975660Y-85300820D01*
X104947720Y-85333840D01*
X104940100Y-85354160D01*
X104942640Y-85369400D01*
X104960420Y-85397340D01*
X105001060Y-85458300D01*
X105059480Y-85544660D01*
X105128060Y-85643720D01*
X105183940Y-85727540D01*
X105244900Y-85821520D01*
X105283000Y-85887560D01*
X105298240Y-85920580D01*
X105293160Y-85933280D01*
X105275380Y-85989160D01*
X105239820Y-86072980D01*
X105199180Y-86172040D01*
X105100120Y-86393020D01*
X104955340Y-86420960D01*
X104866440Y-86438740D01*
X104744520Y-86461600D01*
X104625140Y-86484460D01*
X104442260Y-86520020D01*
X104434640Y-87195660D01*
X104462580Y-87208360D01*
X104490520Y-87215980D01*
X104559100Y-87231220D01*
X104655620Y-87251540D01*
X104772460Y-87271860D01*
X104868980Y-87289640D01*
X104968040Y-87309960D01*
X105039160Y-87322660D01*
X105069640Y-87330280D01*
X105079800Y-87340440D01*
X105102660Y-87388700D01*
X105138220Y-87464900D01*
X105178860Y-87556340D01*
X105216960Y-87650320D01*
X105252520Y-87739220D01*
X105275380Y-87805260D01*
X105285540Y-87838280D01*
X105272840Y-87866220D01*
X105234740Y-87924640D01*
X105181400Y-88005920D01*
X105112820Y-88104980D01*
X105046780Y-88201500D01*
X104988360Y-88285320D01*
X104950260Y-88346280D01*
X104932480Y-88374220D01*
X104942640Y-88392000D01*
X104980740Y-88440260D01*
X105054400Y-88516460D01*
X105166160Y-88625680D01*
X105183940Y-88643460D01*
X105270300Y-88727280D01*
X105343960Y-88795860D01*
X105397300Y-88841580D01*
X105420160Y-88859360D01*
D12*
X105283000Y-72517000D02*
X106553000Y-72517000D01*
X106553000Y-72517000D02*
X106553000Y-78867000D01*
X106553000Y-78867000D02*
X105283000Y-78867000D01*
X105283000Y-78867000D02*
X105283000Y-72517000D01*
X102108000Y-71882000D02*
X109728000Y-71882000D01*
X109728000Y-71882000D02*
X109728000Y-79502000D01*
X109728000Y-79502000D02*
X102108000Y-79502000D01*
X102108000Y-79502000D02*
X102108000Y-71882000D01*
X97226381Y-76914190D02*
X96226381Y-76914190D01*
X97131143Y-75866571D02*
X97178762Y-75914190D01*
X97226381Y-76057047D01*
X97226381Y-76152285D01*
X97178762Y-76295143D01*
X97083524Y-76390381D01*
X96988286Y-76438000D01*
X96797810Y-76485619D01*
X96654952Y-76485619D01*
X96464476Y-76438000D01*
X96369238Y-76390381D01*
X96274000Y-76295143D01*
X96226381Y-76152285D01*
X96226381Y-76057047D01*
X96274000Y-75914190D01*
X96321619Y-75866571D01*
X97178762Y-75485619D02*
X97226381Y-75342762D01*
X97226381Y-75104666D01*
X97178762Y-75009428D01*
X97131143Y-74961809D01*
X97035905Y-74914190D01*
X96940667Y-74914190D01*
X96845429Y-74961809D01*
X96797810Y-75009428D01*
X96750190Y-75104666D01*
X96702571Y-75295143D01*
X96654952Y-75390381D01*
X96607333Y-75438000D01*
X96512095Y-75485619D01*
X96416857Y-75485619D01*
X96321619Y-75438000D01*
X96274000Y-75390381D01*
X96226381Y-75295143D01*
X96226381Y-75057047D01*
X96274000Y-74914190D01*
X97226381Y-74485619D02*
X96226381Y-74485619D01*
X96226381Y-74104666D01*
X96274000Y-74009428D01*
X96321619Y-73961809D01*
X96416857Y-73914190D01*
X96559714Y-73914190D01*
X96654952Y-73961809D01*
X96702571Y-74009428D01*
X96750190Y-74104666D01*
X96750190Y-74485619D01*
X71207334Y-97639143D02*
X71159715Y-97686762D01*
X71016858Y-97734381D01*
X70921620Y-97734381D01*
X70778762Y-97686762D01*
X70683524Y-97591524D01*
X70635905Y-97496286D01*
X70588286Y-97305810D01*
X70588286Y-97162952D01*
X70635905Y-96972476D01*
X70683524Y-96877238D01*
X70778762Y-96782000D01*
X70921620Y-96734381D01*
X71016858Y-96734381D01*
X71159715Y-96782000D01*
X71207334Y-96829619D01*
X71540667Y-96734381D02*
X72159715Y-96734381D01*
X71826381Y-97115333D01*
X71969239Y-97115333D01*
X72064477Y-97162952D01*
X72112096Y-97210571D01*
X72159715Y-97305810D01*
X72159715Y-97543905D01*
X72112096Y-97639143D01*
X72064477Y-97686762D01*
X71969239Y-97734381D01*
X71683524Y-97734381D01*
X71588286Y-97686762D01*
X71540667Y-97639143D01*
X75632571Y-80390857D02*
X76846857Y-80390857D01*
X76989714Y-80319429D01*
X77061143Y-80248000D01*
X77132571Y-80105143D01*
X77132571Y-79819429D01*
X77061143Y-79676571D01*
X76989714Y-79605143D01*
X76846857Y-79533714D01*
X75632571Y-79533714D01*
X77132571Y-78033714D02*
X77132571Y-78890857D01*
X77132571Y-78462285D02*
X75632571Y-78462285D01*
X75846857Y-78605142D01*
X75989714Y-78748000D01*
X76061143Y-78890857D01*
X70921715Y-87860143D02*
X70874096Y-87907762D01*
X70731239Y-87955381D01*
X70636001Y-87955381D01*
X70493143Y-87907762D01*
X70397905Y-87812524D01*
X70350286Y-87717286D01*
X70302667Y-87526810D01*
X70302667Y-87383952D01*
X70350286Y-87193476D01*
X70397905Y-87098238D01*
X70493143Y-87003000D01*
X70636001Y-86955381D01*
X70731239Y-86955381D01*
X70874096Y-87003000D01*
X70921715Y-87050619D01*
X71540762Y-86955381D02*
X71731239Y-86955381D01*
X71826477Y-87003000D01*
X71921715Y-87098238D01*
X71969334Y-87288714D01*
X71969334Y-87622048D01*
X71921715Y-87812524D01*
X71826477Y-87907762D01*
X71731239Y-87955381D01*
X71540762Y-87955381D01*
X71445524Y-87907762D01*
X71350286Y-87812524D01*
X71302667Y-87622048D01*
X71302667Y-87288714D01*
X71350286Y-87098238D01*
X71445524Y-87003000D01*
X71540762Y-86955381D01*
X72397905Y-87955381D02*
X72397905Y-86955381D01*
X72969334Y-87955381D01*
X72969334Y-86955381D01*
X73969334Y-87955381D02*
X73397905Y-87955381D01*
X73683619Y-87955381D02*
X73683619Y-86955381D01*
X73588381Y-87098238D01*
X73493143Y-87193476D01*
X73397905Y-87241095D01*
X86447334Y-94337143D02*
X86399715Y-94384762D01*
X86256858Y-94432381D01*
X86161620Y-94432381D01*
X86018762Y-94384762D01*
X85923524Y-94289524D01*
X85875905Y-94194286D01*
X85828286Y-94003810D01*
X85828286Y-93860952D01*
X85875905Y-93670476D01*
X85923524Y-93575238D01*
X86018762Y-93480000D01*
X86161620Y-93432381D01*
X86256858Y-93432381D01*
X86399715Y-93480000D01*
X86447334Y-93527619D01*
X87399715Y-94432381D02*
X86828286Y-94432381D01*
X87114000Y-94432381D02*
X87114000Y-93432381D01*
X87018762Y-93575238D01*
X86923524Y-93670476D01*
X86828286Y-93718095D01*
X86193334Y-89257143D02*
X86145715Y-89304762D01*
X86002858Y-89352381D01*
X85907620Y-89352381D01*
X85764762Y-89304762D01*
X85669524Y-89209524D01*
X85621905Y-89114286D01*
X85574286Y-88923810D01*
X85574286Y-88780952D01*
X85621905Y-88590476D01*
X85669524Y-88495238D01*
X85764762Y-88400000D01*
X85907620Y-88352381D01*
X86002858Y-88352381D01*
X86145715Y-88400000D01*
X86193334Y-88447619D01*
X86574286Y-88447619D02*
X86621905Y-88400000D01*
X86717143Y-88352381D01*
X86955239Y-88352381D01*
X87050477Y-88400000D01*
X87098096Y-88447619D01*
X87145715Y-88542857D01*
X87145715Y-88638095D01*
X87098096Y-88780952D01*
X86526667Y-89352381D01*
X87145715Y-89352381D01*
X81113334Y-78843143D02*
X81065715Y-78890762D01*
X80922858Y-78938381D01*
X80827620Y-78938381D01*
X80684762Y-78890762D01*
X80589524Y-78795524D01*
X80541905Y-78700286D01*
X80494286Y-78509810D01*
X80494286Y-78366952D01*
X80541905Y-78176476D01*
X80589524Y-78081238D01*
X80684762Y-77986000D01*
X80827620Y-77938381D01*
X80922858Y-77938381D01*
X81065715Y-77986000D01*
X81113334Y-78033619D01*
X81970477Y-78271714D02*
X81970477Y-78938381D01*
X81732381Y-77890762D02*
X81494286Y-78605048D01*
X82113334Y-78605048D01*
X95289810Y-83764381D02*
X95289810Y-82764381D01*
X96337429Y-83669143D02*
X96289810Y-83716762D01*
X96146953Y-83764381D01*
X96051715Y-83764381D01*
X95908857Y-83716762D01*
X95813619Y-83621524D01*
X95766000Y-83526286D01*
X95718381Y-83335810D01*
X95718381Y-83192952D01*
X95766000Y-83002476D01*
X95813619Y-82907238D01*
X95908857Y-82812000D01*
X96051715Y-82764381D01*
X96146953Y-82764381D01*
X96289810Y-82812000D01*
X96337429Y-82859619D01*
X97289810Y-83764381D02*
X96718381Y-83764381D01*
X97004095Y-83764381D02*
X97004095Y-82764381D01*
X96908857Y-82907238D01*
X96813619Y-83002476D01*
X96718381Y-83050095D01*
X88161905Y-103957381D02*
X88161905Y-102957381D01*
X88733334Y-103957381D02*
X88304762Y-103385952D01*
X88733334Y-102957381D02*
X88161905Y-103528810D01*
X89685715Y-103957381D02*
X89114286Y-103957381D01*
X89400000Y-103957381D02*
X89400000Y-102957381D01*
X89304762Y-103100238D01*
X89209524Y-103195476D01*
X89114286Y-103243095D01*
X109672381Y-105513095D02*
X108672381Y-105513095D01*
X108672381Y-105132142D01*
X108720000Y-105036904D01*
X108767619Y-104989285D01*
X108862857Y-104941666D01*
X109005714Y-104941666D01*
X109100952Y-104989285D01*
X109148571Y-105036904D01*
X109196190Y-105132142D01*
X109196190Y-105513095D01*
X109672381Y-103989285D02*
X109672381Y-104560714D01*
X109672381Y-104275000D02*
X108672381Y-104275000D01*
X108815238Y-104370238D01*
X108910476Y-104465476D01*
X108958095Y-104560714D01*
X90328762Y-96051619D02*
X90233524Y-96004000D01*
X90138286Y-95908762D01*
X89995429Y-95765905D01*
X89900190Y-95718286D01*
X89804952Y-95718286D01*
X89852571Y-95956381D02*
X89757333Y-95908762D01*
X89662095Y-95813524D01*
X89614476Y-95623048D01*
X89614476Y-95289714D01*
X89662095Y-95099238D01*
X89757333Y-95004000D01*
X89852571Y-94956381D01*
X90043048Y-94956381D01*
X90138286Y-95004000D01*
X90233524Y-95099238D01*
X90281143Y-95289714D01*
X90281143Y-95623048D01*
X90233524Y-95813524D01*
X90138286Y-95908762D01*
X90043048Y-95956381D01*
X89852571Y-95956381D01*
X91233524Y-95956381D02*
X90662095Y-95956381D01*
X90947809Y-95956381D02*
X90947809Y-94956381D01*
X90852571Y-95099238D01*
X90757333Y-95194476D01*
X90662095Y-95242095D01*
X107021334Y-80716381D02*
X106688000Y-80240190D01*
X106449905Y-80716381D02*
X106449905Y-79716381D01*
X106830858Y-79716381D01*
X106926096Y-79764000D01*
X106973715Y-79811619D01*
X107021334Y-79906857D01*
X107021334Y-80049714D01*
X106973715Y-80144952D01*
X106926096Y-80192571D01*
X106830858Y-80240190D01*
X106449905Y-80240190D01*
X107973715Y-80716381D02*
X107402286Y-80716381D01*
X107688000Y-80716381D02*
X107688000Y-79716381D01*
X107592762Y-79859238D01*
X107497524Y-79954476D01*
X107402286Y-80002095D01*
X84161334Y-95956381D02*
X83828000Y-95480190D01*
X83589905Y-95956381D02*
X83589905Y-94956381D01*
X83970858Y-94956381D01*
X84066096Y-95004000D01*
X84113715Y-95051619D01*
X84161334Y-95146857D01*
X84161334Y-95289714D01*
X84113715Y-95384952D01*
X84066096Y-95432571D01*
X83970858Y-95480190D01*
X83589905Y-95480190D01*
X84494667Y-94956381D02*
X85113715Y-94956381D01*
X84780381Y-95337333D01*
X84923239Y-95337333D01*
X85018477Y-95384952D01*
X85066096Y-95432571D01*
X85113715Y-95527810D01*
X85113715Y-95765905D01*
X85066096Y-95861143D01*
X85018477Y-95908762D01*
X84923239Y-95956381D01*
X84637524Y-95956381D01*
X84542286Y-95908762D01*
X84494667Y-95861143D01*
X83399334Y-104592381D02*
X83066000Y-104116190D01*
X82827905Y-104592381D02*
X82827905Y-103592381D01*
X83208858Y-103592381D01*
X83304096Y-103640000D01*
X83351715Y-103687619D01*
X83399334Y-103782857D01*
X83399334Y-103925714D01*
X83351715Y-104020952D01*
X83304096Y-104068571D01*
X83208858Y-104116190D01*
X82827905Y-104116190D01*
X83780286Y-103687619D02*
X83827905Y-103640000D01*
X83923143Y-103592381D01*
X84161239Y-103592381D01*
X84256477Y-103640000D01*
X84304096Y-103687619D01*
X84351715Y-103782857D01*
X84351715Y-103878095D01*
X84304096Y-104020952D01*
X83732667Y-104592381D01*
X84351715Y-104592381D01*
X93504000Y-67917143D02*
X93718286Y-67988571D01*
X94075429Y-67988571D01*
X94218286Y-67917143D01*
X94289715Y-67845714D01*
X94361143Y-67702857D01*
X94361143Y-67560000D01*
X94289715Y-67417143D01*
X94218286Y-67345714D01*
X94075429Y-67274286D01*
X93789715Y-67202857D01*
X93646857Y-67131429D01*
X93575429Y-67060000D01*
X93504000Y-66917143D01*
X93504000Y-66774286D01*
X93575429Y-66631429D01*
X93646857Y-66560000D01*
X93789715Y-66488571D01*
X94146857Y-66488571D01*
X94361143Y-66560000D01*
X94861143Y-66488571D02*
X95218286Y-67988571D01*
X95504000Y-66917143D01*
X95789714Y-67988571D01*
X96146857Y-66488571D01*
X97504000Y-67988571D02*
X96646857Y-67988571D01*
X97075429Y-67988571D02*
X97075429Y-66488571D01*
X96932572Y-66702857D01*
X96789714Y-66845714D01*
X96646857Y-66917143D01*
M02*
