M48
;DRILL file {KiCad 4.0.1-3.201512221401+6198~38~ubuntu15.10.1-stable} date lun 28 dic 2015 17:24:38 CET
;FORMAT={-:-/ absolute / metric / decimal}
FMAT,2
METRIC,TZ
T1C0.800
T2C2.800
%
G90
G05
M71
T1
X71.12Y-77.47
X71.12Y-80.01
X71.12Y-82.55
X78.74Y-72.39
X78.78Y-82.55
X78.82Y-94.615
X81.28Y-72.39
X81.28Y-82.55
X83.82Y-72.39
X83.82Y-86.36
X83.82Y-94.615
X86.36Y-72.39
X86.995Y-76.2
X86.995Y-82.55
X88.265Y-91.44
X88.265Y-96.52
X88.9Y-72.39
X90.765Y-91.44
X90.765Y-96.52
X91.44Y-72.39
X93.98Y-86.36
X94.615Y-91.539
X94.615Y-96.421
X99.06Y-82.55
X99.06Y-85.09
X99.06Y-87.63
X99.06Y-90.17
X99.06Y-92.71
X99.06Y-95.25
X99.06Y-97.79
X100.33Y-74.93
X100.33Y-77.47
X102.87Y-74.93
X102.87Y-77.47
X105.41Y-74.93
X105.41Y-77.47
X106.68Y-82.55
X106.68Y-85.09
X106.68Y-87.63
X106.68Y-90.17
X106.68Y-92.71
X106.68Y-95.25
X106.68Y-97.79
X111.125Y-95.25
X111.125Y-100.33
X113.665Y-74.295
X113.665Y-78.105
X113.665Y-83.185
X113.665Y-88.265
X116.205Y-95.25
X116.205Y-100.33
X122.428Y-69.596
T2
X66.421Y-93.955
X67.056Y-71.12
X71.12Y-90.955
X71.12Y-96.954
X121.412Y-100.076
T0
M30
